<?xml version="1.0" standalone="no"?>
<!DOCTYPE svg PUBLIC "-//W3C//DTD SVG 1.1//EN"
  "http://www.w3.org/Graphics/SVG/1.1/DTD/svg11.dtd">
<!-- Created with matplotlib (http://matplotlib.sourceforge.net/) -->
<svg width="576pt" height="432pt" viewBox="0 0 576 432"
   xmlns="http://www.w3.org/2000/svg"
   xmlns:xlink="http://www.w3.org/1999/xlink"
   version="1.1"
   id="svg1">
<filter id="colorAdd"><feComposite in="SourceGraphic" in2="BackgroundImage" operator="arithmetic" k2="1" k3="1"/></filter>
<g id="figure1">
<g id="patch1">
<path style="fill: #ffffff; stroke: #ffffff; stroke-width: 1.000000; stroke-linejoin: round; stroke-linecap: square;  opacity: 1.000000"  d="M0.000000 432.000000L576.000000 432.000000L576.000000 0.000000
L0.000000 0.000000z"/>
</g>
<g id="axes1">
<g id="patch2">
<path style="fill: #ffffff; opacity: 1.000000"  d="M72.000000 200.290909L518.400000 200.290909L518.400000 43.200000
L72.000000 43.200000z"/>
</g>
<g id="line2d1">
<defs>
  <clipPath id="pad2bdf97e9fd82d59a5c57b91897f3de">
<rect x="72.000000" y="43.200000" width="446.400000" height="157.090909"/>
  </clipPath>
</defs><path style="fill: none; stroke: #ff0000; stroke-width: 1.000000; stroke-linejoin: round; stroke-linecap: square;  opacity: 1.000000" clip-path="url(#pad2bdf97e9fd82d59a5c57b91897f3de)" d="M71.256000 110.058010L72.558000 110.807374L73.860000 113.244289
L75.162000 111.579715L76.464000 109.252897L77.766000 114.150322
L79.068000 111.398217L80.370000 111.527907L81.672000 108.267335
L82.974000 111.714896L84.276000 112.456386L85.578000 118.244088
L86.880000 111.016153L88.182000 110.494974L89.484000 109.623498
L90.786000 111.273302L92.088000 111.533743L93.390000 111.119230
L94.692000 112.379681L95.994000 114.155489L97.296000 115.367163
L98.598000 118.695265L99.900000 114.073603L101.202000 114.690095
L102.504000 113.326319L103.806000 112.911455L105.108000 115.102851
L106.410000 113.756684L107.712000 112.184343L109.014000 113.747032
L110.316000 110.921467L111.618000 110.297287L112.920000 108.470092
L114.222000 113.454363L115.524000 113.963113L116.826000 112.346791
L118.128000 113.666249L119.430000 114.077254L120.732000 113.257998
L122.034000 113.627021L123.336000 113.397547L124.638000 113.897480
L125.940000 112.560992L128.544000 114.013570L129.846000 113.574897
L131.148000 114.195619L132.450000 116.228547L133.752000 112.485059
L135.054000 114.513895L136.356000 113.310729L138.960000 115.511128
L140.262000 115.500064L141.564000 119.724801L142.866000 116.028683
L144.168000 118.539478L145.470000 120.255687L146.772000 117.631137
L148.074000 117.015693L149.376000 117.440374L150.678000 116.927827
L151.980000 116.749271L153.282000 119.320037L154.584000 117.896249
L155.886000 114.615291L157.188000 113.036564L158.490000 117.364364
L159.792000 116.896109L161.094000 118.885966L162.396000 116.061104
L163.698000 115.011816L165.000000 120.583595L166.302000 115.762510
L168.906000 120.370600L170.208000 118.220099L171.510000 114.125080
L172.812000 117.018324L174.114000 117.772856L175.416000 117.376662
L176.718000 120.460574L178.020000 120.607611L179.322000 119.783980
L181.926000 117.475295L183.228000 117.543589L184.530000 120.391771
L185.832000 118.226437L187.134000 118.766500L188.436000 117.356146
L189.738000 121.336390L191.040000 120.300019L192.342000 118.569019
L193.644000 117.079067L194.946000 121.791791L196.248000 121.462994
L197.550000 121.486631L198.852000 120.628451L200.154000 121.138125
L202.758000 121.522862L204.060000 123.581611L205.362000 121.539754
L206.664000 121.235235L207.966000 125.154014L209.268000 119.883674
L210.570000 120.936717L211.872000 123.757335L213.174000 121.941439
L214.476000 118.850769L215.778000 122.792179L217.080000 121.354902
L218.382000 121.835510L219.684000 125.202976L220.986000 121.862943
L222.288000 123.631310L223.590000 127.342426L224.892000 120.939728
L226.194000 125.811077L227.496000 127.754073L228.798000 123.757976
L230.100000 125.504581L231.402000 125.051302L232.704000 125.580976
L234.006000 129.870981L235.308000 124.075522L236.610000 128.562706
L237.912000 124.003413L239.214000 130.666084L240.516000 126.636774
L241.818000 125.253261L243.120000 129.538926L244.422000 129.844506
L245.724000 123.350863L247.026000 125.761956L248.328000 126.882348
L249.630000 128.595016L250.932000 126.521765L252.234000 128.002968
L253.536000 127.373166L254.838000 128.795990L256.140000 129.658255
L257.442000 131.205974L258.744000 129.415072L260.046000 124.643810
L261.348000 130.319844L262.650000 128.891178L263.952000 129.060089
L265.254000 131.214131L266.556000 131.131467L267.858000 127.226701
L269.160000 129.875983L270.462000 132.942051L271.764000 133.485896
L274.368000 130.653497L275.670000 131.481344L276.972000 136.193627
L278.274000 133.599307L279.576000 136.025550L280.878000 135.888206
L282.180000 135.161886L283.482000 133.054250L284.784000 132.449284
L286.086000 134.128229L287.388000 136.695977L288.690000 137.996861
L289.992000 137.122174L291.294000 139.531890L292.596000 138.406510
L293.898000 135.673909L295.200000 138.946662L296.502000 137.835267
L297.804000 140.244603L299.106000 136.265592L300.408000 139.508446
L301.710000 139.498504L303.012000 137.657786L305.616000 144.869661
L306.918000 142.545820L308.220000 143.564630L309.522000 144.399897
L310.824000 146.265024L312.126000 142.200434L313.428000 144.978498
L314.730000 146.581255L316.032000 148.383538L317.334000 146.120343
L318.636000 152.876081L319.938000 151.288495L321.240000 151.382051
L322.542000 153.985127L323.844000 151.844485L325.146000 153.252648
L326.448000 153.624991L327.750000 156.623765L329.052000 161.955771
L330.354000 160.517136L331.656000 166.017846L332.958000 190.011547
L334.260000 192.328857L335.562000 155.445641L336.864000 140.513773
L338.166000 152.072057L339.468000 165.675058L340.770000 191.120819
L342.072000 191.003606L343.374000 149.169044L344.676000 141.918733
L345.978000 154.385689L347.280000 191.357700L348.582000 189.958327
L349.884000 157.179142L351.186000 145.225898L352.488000 161.242547
L353.790000 190.713658L355.092000 191.155445L356.394000 144.382805
L357.696000 146.006615L358.998000 190.297223L360.300000 190.914121
L361.602000 161.973083L362.904000 147.574995L364.206000 179.778548
L365.508000 191.138676L366.810000 157.114652L368.112000 150.785848
L369.414000 191.244158L370.716000 191.612016L372.018000 142.704094
L373.320000 161.084005L374.622000 191.006286L375.924000 161.093870
L377.226000 154.640219L378.528000 190.592069L379.830000 179.566490
L381.132000 151.291422L382.434000 190.551030L383.736000 190.217818
L385.038000 151.221662L386.340000 191.559768L387.642000 191.999695
L388.944000 151.112233L390.246000 190.708325L391.548000 182.360405
L392.850000 156.706230L394.152000 191.740680L395.454000 168.755159
L396.756000 192.021823L398.058000 190.746209L399.360000 160.683285
L400.662000 191.518998L401.964000 159.622374L403.266000 189.822120
L404.568000 170.641595L405.870000 191.479901L407.172000 186.017000
L408.474000 190.369181L409.776000 185.933971L411.078000 190.508806
L412.380000 190.187236L413.682000 192.118280L414.984000 181.645721
L416.286000 191.883473L417.588000 170.948518L418.890000 191.320504
L420.192000 170.562506L421.494000 191.730980L422.796000 190.596293
L424.098000 176.298442L425.400000 183.088124L426.702000 189.010524
L428.004000 189.483837L429.306000 191.118904L430.608000 191.187301
L431.910000 186.703321L433.212000 189.901160L434.514000 192.019832
L435.816000 189.651893L437.118000 188.991448L438.420000 190.738879
L439.722000 186.009305L441.024000 192.617688L442.326000 189.710996
L443.628000 188.603487L444.930000 192.196032L446.232000 187.364448
L447.534000 190.907680L448.836000 190.760112L450.138000 188.027036
L451.440000 192.000722L452.742000 184.453284L454.044000 189.729645
L455.346000 190.355362L456.648000 190.655540L457.950000 189.660546
L459.252000 189.927739L460.554000 190.700327L461.856000 190.774951
L463.158000 188.151187L464.460000 190.714505L465.762000 191.382239
L467.064000 190.407520L468.366000 190.815040L469.668000 192.111818
L470.970000 190.635024L472.272000 191.012748L473.574000 191.218943
L474.876000 190.593557L476.178000 190.324243L477.480000 190.852862
L478.782000 189.686980L480.084000 190.407878L481.386000 190.226918
L482.688000 189.260646L483.990000 190.904497L485.292000 188.486948
L486.594000 189.244787L487.896000 188.913420L489.198000 190.460478
L490.500000 191.190752L491.802000 192.661408L493.104000 190.622981
L494.406000 191.993178L495.708000 190.460636L497.010000 190.072785
L499.614000 192.055787L500.916000 190.796508L502.218000 190.984757
L503.520000 191.813837L504.822000 191.294732L506.124000 191.873374
L507.426000 191.430409L508.728000 191.320229L510.030000 191.923700
L511.332000 191.743911L512.634000 189.724912L513.936000 189.523588
L515.238000 192.848844L516.540000 192.412547L517.842000 191.409431
L519.144000 190.191074L519.144000 190.191074"/>
</g>
<g id="line2d2">
<path style="fill: none; stroke: #0000ff; stroke-width: 1.000000; stroke-linejoin: round; stroke-linecap: square;  opacity: 1.000000" clip-path="url(#pad2bdf97e9fd82d59a5c57b91897f3de)" d="M70.698000 185.631181L72.000000 185.374005L73.302000 187.314163
L74.604000 186.930253L75.906000 187.314639L77.208000 186.729059
L78.510000 186.477594L79.812000 187.535170L81.114000 185.717621
L82.416000 184.295286L83.718000 186.532171L85.020000 186.311136
L86.322000 186.325507L87.624000 185.476552L90.228000 186.620595
L91.530000 186.269119L92.832000 186.864805L94.134000 186.691706
L95.436000 185.410766L96.738000 185.949582L98.040000 187.616484
L99.342000 185.704069L100.644000 184.706347L101.946000 185.692860
L103.248000 186.957824L104.550000 185.854531L105.852000 185.051347
L107.154000 185.335515L109.758000 186.510380L111.060000 185.058133
L112.362000 185.565788L113.664000 185.411007L114.966000 186.604701
L116.268000 186.635214L117.570000 184.545779L118.872000 186.242533
L120.174000 186.059004L121.476000 186.072562L122.778000 185.428906
L124.080000 183.738015L125.382000 185.487912L126.684000 183.708577
L127.986000 185.839753L129.288000 184.193594L130.590000 186.052390
L131.892000 186.156197L133.194000 186.779612L134.496000 186.089881
L135.798000 186.290021L137.100000 183.569193L138.402000 184.930386
L139.704000 184.023498L141.006000 185.851582L142.308000 185.921246
L143.610000 184.901644L144.912000 184.055719L146.214000 183.942880
L147.516000 184.159306L148.818000 184.112666L150.120000 183.487425
L151.422000 183.471221L152.724000 184.070883L154.026000 184.800957
L155.328000 185.122610L156.630000 184.904103L157.932000 183.302442
L159.234000 182.640288L160.536000 184.681153L161.838000 183.315166
L163.140000 184.416227L164.442000 181.825703L165.744000 184.453381
L167.046000 183.389942L168.348000 183.416218L169.650000 182.892772
L170.952000 184.723488L173.556000 182.374074L174.858000 182.795716
L176.160000 183.912023L177.462000 183.482616L178.764000 182.588570
L180.066000 184.515735L181.368000 183.517586L182.670000 182.256254
L183.972000 183.397224L185.274000 180.370555L186.576000 180.836537
L187.878000 182.877891L189.180000 182.137400L190.482000 180.856757
L191.784000 182.549026L193.086000 181.788673L194.388000 179.245458
L195.690000 179.657766L196.992000 180.614028L198.294000 180.237655
L199.596000 182.295426L200.898000 179.290658L203.502000 180.907710
L204.804000 180.604976L206.106000 180.656280L207.408000 178.894719
L208.710000 179.580296L210.012000 179.530852L211.314000 180.097176
L212.616000 179.985536L213.918000 182.080495L215.220000 179.367887
L216.522000 180.165841L217.824000 178.492876L219.126000 180.655343
L220.428000 178.537187L221.730000 177.774210L223.032000 180.429458
L224.334000 178.035505L225.636000 175.311171L226.938000 177.352725
L228.240000 178.651453L229.542000 176.986258L230.844000 179.096257
L232.146000 180.182720L233.448000 175.945589L234.750000 177.235525
L236.052000 177.801367L237.354000 176.924627L238.656000 174.568599
L239.958000 174.275379L241.260000 177.174831L242.562000 175.294499
L243.864000 176.003775L245.166000 175.660374L246.468000 175.739814
L247.770000 176.251058L249.072000 175.381207L250.374000 175.203320
L251.676000 173.750638L252.978000 175.443941L254.280000 174.462002
L255.582000 172.641414L256.884000 173.042458L258.186000 172.212441
L259.488000 172.594250L260.790000 172.345169L262.092000 171.885766
L263.394000 170.914692L264.696000 170.331675L265.998000 172.720998
L267.300000 170.838483L268.602000 171.255282L269.904000 171.007159
L271.206000 172.342668L272.508000 170.767565L273.810000 167.526296
L275.112000 169.261127L276.414000 169.584191L277.716000 169.108433
L279.018000 167.547467L280.320000 166.476126L281.622000 167.004442
L282.924000 166.117258L284.226000 162.384592L285.528000 163.756897
L286.830000 165.974223L288.132000 165.899034L289.434000 167.328643
L290.736000 162.933693L292.038000 164.602077L293.340000 162.504865
L294.642000 163.329322L295.944000 161.332893L297.246000 160.212521
L298.548000 160.416264L299.850000 158.697478L301.152000 161.747081
L302.454000 159.460890L303.756000 159.239683L305.058000 159.310195
L306.360000 155.825342L307.662000 154.782130L308.964000 154.314185
L310.266000 153.346975L311.568000 152.181031L312.870000 155.000706
L314.172000 153.970156L315.474000 150.803464L316.776000 149.963037
L318.078000 150.805551L319.380000 147.300293L320.682000 143.178805
L321.984000 143.278161L323.286000 138.892663L324.588000 140.466899
L325.890000 142.412024L328.494000 134.453505L329.796000 129.089692
L331.098000 127.000444L332.400000 88.220741L333.702000 87.530197
L335.004000 94.699807L336.306000 158.059417L337.608000 155.578590
L338.910000 140.133549L340.212000 92.574005L341.514000 90.889066
L342.816000 115.219740L344.118000 161.678003L345.420000 151.330484
L346.722000 122.331398L348.024000 88.048999L349.326000 97.267397
L350.628000 160.355535L351.930000 146.453755L353.232000 94.589228
L354.534000 93.272141L355.836000 132.666474L357.138000 158.557248
L358.440000 132.424345L359.742000 92.300295L361.044000 93.111669
L362.346000 156.275045L363.648000 138.038506L364.950000 89.771154
L366.252000 95.789632L367.554000 153.301238L368.856000 125.112093
L370.158000 92.714670L371.460000 135.477682L372.762000 147.775190
L374.064000 89.846267L375.366000 90.268337L376.668000 148.259745
L377.970000 91.888269L379.272000 84.292545L380.574000 146.116223
L381.876000 124.097471L383.178000 85.800947L384.480000 135.457800
L385.782000 129.794070L387.084000 96.067661L388.386000 133.997898
L389.688000 119.999434L390.990000 89.097867L392.292000 139.593507
L393.594000 92.812228L394.896000 92.422228L396.198000 133.541051
L397.500000 90.760733L398.802000 134.045716L400.104000 91.185786
L401.406000 108.611659L402.708000 119.508809L404.010000 89.721469
L405.312000 130.488844L406.614000 92.537850L407.916000 127.492977
L409.218000 93.198997L410.520000 127.860140L411.822000 90.699364
L413.124000 127.461776L414.426000 92.095078L415.728000 122.211532
L417.030000 90.370236L418.332000 93.876307L419.634000 115.602431
L420.936000 90.536143L422.238000 120.208234L423.540000 97.001734
L424.842000 89.990081L426.144000 91.162645L427.446000 105.355200
L428.748000 108.473716L430.050000 95.270789L431.352000 94.699594
L432.654000 90.668686L433.956000 109.346956L435.258000 98.018863
L436.560000 99.080496L437.862000 111.335373L439.164000 93.283653
L440.466000 107.183669L441.768000 106.256672L443.070000 90.483289
L444.372000 99.267505L445.674000 92.957770L446.976000 94.479530
L448.278000 91.864777L449.580000 96.231653L450.882000 99.735747
L452.184000 92.623277L453.486000 100.317772L454.788000 97.600113
L456.090000 100.003443L457.392000 100.342656L458.694000 93.953233
L459.996000 95.441394L461.298000 95.146162L462.600000 95.008549
L463.902000 94.267321L465.204000 93.081446L466.506000 97.023352
L467.808000 94.166882L469.110000 94.521941L470.412000 95.182344
L471.714000 93.648976L473.016000 98.841446L474.318000 98.623250
L475.620000 97.727200L476.922000 91.707399L478.224000 90.029956
L479.526000 92.472629L480.828000 94.610426L482.130000 87.812884
L483.432000 90.353654L484.734000 91.850227L486.036000 91.072244
L487.338000 89.331633L488.640000 94.378961L489.942000 98.513125
L491.244000 96.336080L493.848000 97.342042L495.150000 92.169805
L496.452000 98.362781L497.754000 94.365782L499.056000 95.144212
L500.358000 92.873301L501.660000 94.496009L502.962000 92.930875
L504.264000 94.191436L505.566000 96.077603L506.868000 94.826267
L508.170000 94.652946L509.472000 100.691162L510.774000 100.880500
L512.076000 98.929863L513.378000 91.919030L514.680000 94.727736
L515.982000 98.659722L517.284000 94.259446L518.586000 93.436842
L518.586000 93.436842"/>
</g>
<g id="matplotlib.axis1">
<g id="xtick1">
<g id="line2d3">
<defs><path id="m6c1db36b5266faadb5cf818529feee81" d="M0.000000 0.000000L0.000000 -6.000000"/></defs>
<g ><use style="fill: none; stroke: #000000; stroke-width: 2.000000; stroke-linejoin: round; stroke-linecap: butt;  opacity: 1.000000" xlink:href="#m6c1db36b5266faadb5cf818529feee81" x="72.000000" y="200.290909"/>
</g></g>
<g id="line2d4">
<defs><path id="mdd338e0e57396f882d6b666f0598d692" d="M0.000000 0.000000L0.000000 6.000000"/></defs>
<g ><use style="fill: none; stroke: #000000; stroke-width: 2.000000; stroke-linejoin: round; stroke-linecap: butt;  opacity: 1.000000" xlink:href="#mdd338e0e57396f882d6b666f0598d692" x="72.000000" y="43.200000"/>
</g></g>
<g id="text1">
<defs>
<path id="c_cd96f817f3cab988d24a2b49a5577fe6" d="M10.984375 -1.515625l0.000000 -8.984375q3.718750 1.765625 7.515625 2.687500q3.812500 0.921875 7.484375 0.921875q9.765625 0.000000 14.906250 -6.562500q5.156250 -6.562500 5.890625 -19.953125q-2.828125 4.203125 -7.187500 6.453125q-4.343750 2.250000 -9.609375 2.250000q-10.937500 0.000000 -17.312500 -6.609375q-6.375000 -6.625000 -6.375000 -18.109375q0.000000 -11.218750 6.640625 -18.000000q6.640625 -6.796875 17.671875 -6.796875q12.656250 0.000000 19.312500 9.703125q6.671875 9.687500 6.671875 28.140625q0.000000 17.234375 -8.187500 27.515625q-8.171875 10.281250 -21.984375 10.281250q-3.718750 0.000000 -7.531250 -0.734375q-3.796875 -0.734375 -7.906250 -2.203125M30.609375 -32.421875q6.640625 0.000000 10.515625 -4.531250q3.890625 -4.546875 3.890625 -12.468750q0.000000 -7.859375 -3.890625 -12.421875q-3.875000 -4.562500 -10.515625 -4.562500q-6.640625 0.000000 -10.515625 4.562500q-3.875000 4.562500 -3.875000 12.421875q0.000000 7.921875 3.875000 12.468750q3.875000 4.531250 10.515625 4.531250"/>
<path id="c_7a2040fe3b94fcd41d0a72c84e93b115" d="M31.781250 -66.406250q-7.609375 0.000000 -11.453125 7.500000q-3.828125 7.484375 -3.828125 22.531250q0.000000 14.984375 3.828125 22.484375q3.843750 7.500000 11.453125 7.500000q7.671875 0.000000 11.500000 -7.500000q3.843750 -7.500000 3.843750 -22.484375q0.000000 -15.046875 -3.843750 -22.531250q-3.828125 -7.500000 -11.500000 -7.500000M31.781250 -74.218750q12.265625 0.000000 18.734375 9.703125q6.468750 9.687500 6.468750 28.140625q0.000000 18.406250 -6.468750 28.109375q-6.468750 9.687500 -18.734375 9.687500q-12.250000 0.000000 -18.718750 -9.687500q-6.468750 -9.703125 -6.468750 -28.109375q0.000000 -18.453125 6.468750 -28.140625q6.468750 -9.703125 18.718750 -9.703125"/>
</defs>
<g style="fill: #000000; opacity: 1.000000" transform="translate(59.546875,215.681534)scale(0.140000)">
<use xlink:href="#c_cd96f817f3cab988d24a2b49a5577fe6"/>
<use xlink:href="#c_7a2040fe3b94fcd41d0a72c84e93b115" x="63.623047"/>
<use xlink:href="#c_7a2040fe3b94fcd41d0a72c84e93b115" x="127.246094"/>
</g>
</g>
</g>
<g id="xtick2">
<g id="line2d5">
<g ><use style="fill: none; stroke: #000000; stroke-width: 2.000000; stroke-linejoin: round; stroke-linecap: butt;  opacity: 1.000000" xlink:href="#m6c1db36b5266faadb5cf818529feee81" x="161.280000" y="200.290909"/>
</g></g>
<g id="line2d6">
<g ><use style="fill: none; stroke: #000000; stroke-width: 2.000000; stroke-linejoin: round; stroke-linecap: butt;  opacity: 1.000000" xlink:href="#mdd338e0e57396f882d6b666f0598d692" x="161.280000" y="43.200000"/>
</g></g>
<g id="text2">
<defs>
<path id="c_ed3f3ed3ebfbd18bcb9c012009a68ad1" d="M19.187500 -8.296875l34.421875 0.000000l0.000000 8.296875l-46.281250 0.000000l0.000000 -8.296875q5.609375 -5.812500 15.296875 -15.593750q9.703125 -9.796875 12.187500 -12.640625q4.734375 -5.312500 6.609375 -9.000000q1.890625 -3.687500 1.890625 -7.250000q0.000000 -5.812500 -4.078125 -9.468750q-4.078125 -3.671875 -10.625000 -3.671875q-4.640625 0.000000 -9.796875 1.609375q-5.140625 1.609375 -11.000000 4.890625l0.000000 -9.968750q5.953125 -2.390625 11.125000 -3.609375q5.187500 -1.218750 9.484375 -1.218750q11.328125 0.000000 18.062500 5.671875q6.734375 5.656250 6.734375 15.125000q0.000000 4.500000 -1.687500 8.531250q-1.671875 4.015625 -6.125000 9.484375q-1.218750 1.421875 -7.765625 8.187500q-6.531250 6.765625 -18.453125 18.921875"/>
</defs>
<g style="fill: #000000; opacity: 1.000000" transform="translate(148.826875,215.681534)scale(0.140000)">
<use xlink:href="#c_cd96f817f3cab988d24a2b49a5577fe6"/>
<use xlink:href="#c_ed3f3ed3ebfbd18bcb9c012009a68ad1" x="63.623047"/>
<use xlink:href="#c_7a2040fe3b94fcd41d0a72c84e93b115" x="127.246094"/>
</g>
</g>
</g>
<g id="xtick3">
<g id="line2d7">
<g ><use style="fill: none; stroke: #000000; stroke-width: 2.000000; stroke-linejoin: round; stroke-linecap: butt;  opacity: 1.000000" xlink:href="#m6c1db36b5266faadb5cf818529feee81" x="250.560000" y="200.290909"/>
</g></g>
<g id="line2d8">
<g ><use style="fill: none; stroke: #000000; stroke-width: 2.000000; stroke-linejoin: round; stroke-linecap: butt;  opacity: 1.000000" xlink:href="#mdd338e0e57396f882d6b666f0598d692" x="250.560000" y="43.200000"/>
</g></g>
<g id="text3">
<defs>
<path id="c_a0416418d96557a09b8c1332d34883ba" d="M37.796875 -64.312500l-24.906250 38.921875l24.906250 0.000000zM35.203125 -72.906250l12.406250 0.000000l0.000000 47.515625l10.406250 0.000000l0.000000 8.203125l-10.406250 0.000000l0.000000 17.187500l-9.812500 0.000000l0.000000 -17.187500l-32.906250 0.000000l0.000000 -9.515625z"/>
</defs>
<g style="fill: #000000; opacity: 1.000000" transform="translate(238.106875,215.681534)scale(0.140000)">
<use xlink:href="#c_cd96f817f3cab988d24a2b49a5577fe6"/>
<use xlink:href="#c_a0416418d96557a09b8c1332d34883ba" x="63.623047"/>
<use xlink:href="#c_7a2040fe3b94fcd41d0a72c84e93b115" x="127.246094"/>
</g>
</g>
</g>
<g id="xtick4">
<g id="line2d9">
<g ><use style="fill: none; stroke: #000000; stroke-width: 2.000000; stroke-linejoin: round; stroke-linecap: butt;  opacity: 1.000000" xlink:href="#m6c1db36b5266faadb5cf818529feee81" x="339.840000" y="200.290909"/>
</g></g>
<g id="line2d10">
<g ><use style="fill: none; stroke: #000000; stroke-width: 2.000000; stroke-linejoin: round; stroke-linecap: butt;  opacity: 1.000000" xlink:href="#mdd338e0e57396f882d6b666f0598d692" x="339.840000" y="43.200000"/>
</g></g>
<g id="text4">
<defs>
<path id="c_cc8d6d580d1b10c8632f7a42cd53db8a" d="M33.015625 -40.375000q-6.640625 0.000000 -10.531250 4.546875q-3.875000 4.531250 -3.875000 12.437500q0.000000 7.859375 3.875000 12.437500q3.890625 4.562500 10.531250 4.562500q6.640625 0.000000 10.515625 -4.562500q3.875000 -4.578125 3.875000 -12.437500q0.000000 -7.906250 -3.875000 -12.437500q-3.875000 -4.546875 -10.515625 -4.546875M52.593750 -71.296875l0.000000 8.984375q-3.718750 -1.750000 -7.500000 -2.671875q-3.781250 -0.937500 -7.500000 -0.937500q-9.765625 0.000000 -14.921875 6.593750q-5.140625 6.593750 -5.875000 19.921875q2.875000 -4.250000 7.218750 -6.515625q4.359375 -2.265625 9.578125 -2.265625q10.984375 0.000000 17.359375 6.671875q6.375000 6.656250 6.375000 18.125000q0.000000 11.234375 -6.640625 18.031250q-6.640625 6.781250 -17.671875 6.781250q-12.656250 0.000000 -19.343750 -9.687500q-6.687500 -9.703125 -6.687500 -28.109375q0.000000 -17.281250 8.203125 -27.562500q8.203125 -10.281250 22.015625 -10.281250q3.718750 0.000000 7.500000 0.734375q3.781250 0.734375 7.890625 2.187500"/>
</defs>
<g style="fill: #000000; opacity: 1.000000" transform="translate(327.386875,215.681534)scale(0.140000)">
<use xlink:href="#c_cd96f817f3cab988d24a2b49a5577fe6"/>
<use xlink:href="#c_cc8d6d580d1b10c8632f7a42cd53db8a" x="63.623047"/>
<use xlink:href="#c_7a2040fe3b94fcd41d0a72c84e93b115" x="127.246094"/>
</g>
</g>
</g>
<g id="xtick5">
<g id="line2d11">
<g ><use style="fill: none; stroke: #000000; stroke-width: 2.000000; stroke-linejoin: round; stroke-linecap: butt;  opacity: 1.000000" xlink:href="#m6c1db36b5266faadb5cf818529feee81" x="429.120000" y="200.290909"/>
</g></g>
<g id="line2d12">
<g ><use style="fill: none; stroke: #000000; stroke-width: 2.000000; stroke-linejoin: round; stroke-linecap: butt;  opacity: 1.000000" xlink:href="#mdd338e0e57396f882d6b666f0598d692" x="429.120000" y="43.200000"/>
</g></g>
<g id="text5">
<defs>
<path id="c_bef35738d52871942e50b9de9b122bab" d="M31.781250 -34.625000q-7.031250 0.000000 -11.062500 3.765625q-4.015625 3.765625 -4.015625 10.343750q0.000000 6.593750 4.015625 10.359375q4.031250 3.765625 11.062500 3.765625q7.031250 0.000000 11.078125 -3.781250q4.062500 -3.796875 4.062500 -10.343750q0.000000 -6.578125 -4.031250 -10.343750q-4.015625 -3.765625 -11.109375 -3.765625M21.921875 -38.812500q-6.343750 -1.562500 -9.890625 -5.906250q-3.531250 -4.359375 -3.531250 -10.609375q0.000000 -8.734375 6.218750 -13.812500q6.234375 -5.078125 17.062500 -5.078125q10.890625 0.000000 17.093750 5.078125q6.203125 5.078125 6.203125 13.812500q0.000000 6.250000 -3.546875 10.609375q-3.531250 4.343750 -9.828125 5.906250q7.125000 1.656250 11.093750 6.500000q3.984375 4.828125 3.984375 11.796875q0.000000 10.609375 -6.468750 16.281250q-6.468750 5.656250 -18.531250 5.656250q-12.046875 0.000000 -18.531250 -5.656250q-6.468750 -5.671875 -6.468750 -16.281250q0.000000 -6.968750 4.000000 -11.796875q4.015625 -4.843750 11.140625 -6.500000M18.312500 -54.390625q0.000000 5.656250 3.531250 8.828125q3.546875 3.171875 9.937500 3.171875q6.359375 0.000000 9.937500 -3.171875q3.593750 -3.171875 3.593750 -8.828125q0.000000 -5.671875 -3.593750 -8.843750q-3.578125 -3.171875 -9.937500 -3.171875q-6.390625 0.000000 -9.937500 3.171875q-3.531250 3.171875 -3.531250 8.843750"/>
</defs>
<g style="fill: #000000; opacity: 1.000000" transform="translate(416.666875,215.681534)scale(0.140000)">
<use xlink:href="#c_cd96f817f3cab988d24a2b49a5577fe6"/>
<use xlink:href="#c_bef35738d52871942e50b9de9b122bab" x="63.623047"/>
<use xlink:href="#c_7a2040fe3b94fcd41d0a72c84e93b115" x="127.246094"/>
</g>
</g>
</g>
<g id="xtick6">
<g id="line2d13">
<g ><use style="fill: none; stroke: #000000; stroke-width: 2.000000; stroke-linejoin: round; stroke-linecap: butt;  opacity: 1.000000" xlink:href="#m6c1db36b5266faadb5cf818529feee81" x="518.400000" y="200.290909"/>
</g></g>
<g id="line2d14">
<g ><use style="fill: none; stroke: #000000; stroke-width: 2.000000; stroke-linejoin: round; stroke-linecap: butt;  opacity: 1.000000" xlink:href="#mdd338e0e57396f882d6b666f0598d692" x="518.400000" y="43.200000"/>
</g></g>
<g id="text6">
<defs>
<path id="c_42baa63129a918535c52adb20d687ea7" d="M12.406250 -8.296875l16.109375 0.000000l0.000000 -55.625000l-17.531250 3.515625l0.000000 -8.984375l17.437500 -3.515625l9.859375 0.000000l0.000000 64.609375l16.109375 0.000000l0.000000 8.296875l-41.984375 0.000000z"/>
</defs>
<g style="fill: #000000; opacity: 1.000000" transform="translate(501.821875,215.681534)scale(0.140000)">
<use xlink:href="#c_42baa63129a918535c52adb20d687ea7"/>
<use xlink:href="#c_7a2040fe3b94fcd41d0a72c84e93b115" x="63.623047"/>
<use xlink:href="#c_7a2040fe3b94fcd41d0a72c84e93b115" x="127.246094"/>
<use xlink:href="#c_7a2040fe3b94fcd41d0a72c84e93b115" x="190.869141"/>
</g>
</g>
</g>
<g id="text7">
<defs>
<path id="c_9e4b30cbdf32072672ded72e9074c4c9" d="M-0.296875 -72.906250l61.671875 0.000000l0.000000 8.312500l-25.875000 0.000000l0.000000 64.593750l-9.906250 0.000000l0.000000 -64.593750l-25.890625 0.000000z"/>
<path id="c_6a63bda47b2f3da1cec6aadd80692cfe" d="M9.421875 -54.687500l8.984375 0.000000l0.000000 54.687500l-8.984375 0.000000zM9.421875 -75.984375l8.984375 0.000000l0.000000 11.390625l-8.984375 0.000000z"/>
<path id="c_4653c6dfde66c7610eae0911760d3490" d="M52.000000 -44.187500q3.375000 -6.062500 8.062500 -8.937500q4.687500 -2.875000 11.031250 -2.875000q8.546875 0.000000 13.187500 5.984375q4.640625 5.968750 4.640625 17.000000l0.000000 33.015625l-9.031250 0.000000l0.000000 -32.718750q0.000000 -7.859375 -2.796875 -11.656250q-2.781250 -3.812500 -8.484375 -3.812500q-6.984375 0.000000 -11.046875 4.640625q-4.046875 4.625000 -4.046875 12.640625l0.000000 30.906250l-9.031250 0.000000l0.000000 -32.718750q0.000000 -7.906250 -2.781250 -11.687500q-2.781250 -3.781250 -8.593750 -3.781250q-6.890625 0.000000 -10.953125 4.656250q-4.046875 4.656250 -4.046875 12.625000l0.000000 30.906250l-9.031250 0.000000l0.000000 -54.687500l9.031250 0.000000l0.000000 8.500000q3.078125 -5.031250 7.375000 -7.421875q4.296875 -2.390625 10.203125 -2.390625q5.968750 0.000000 10.140625 3.031250q4.171875 3.015625 6.171875 8.781250"/>
<path id="c_0bce5afba2dc6b9024b26277c38ad8e8" d="M56.203125 -29.593750l0.000000 4.390625l-41.312500 0.000000q0.593750 9.281250 5.593750 14.140625q5.000000 4.859375 13.937500 4.859375q5.171875 0.000000 10.031250 -1.265625q4.859375 -1.265625 9.656250 -3.812500l0.000000 8.500000q-4.843750 2.046875 -9.921875 3.125000q-5.078125 1.078125 -10.296875 1.078125q-13.093750 0.000000 -20.734375 -7.609375q-7.640625 -7.625000 -7.640625 -20.625000q0.000000 -13.421875 7.250000 -21.296875q7.250000 -7.890625 19.562500 -7.890625q11.031250 0.000000 17.453125 7.109375q6.421875 7.093750 6.421875 19.296875M47.218750 -32.234375q-0.093750 -7.359375 -4.125000 -11.750000q-4.031250 -4.406250 -10.671875 -4.406250q-7.515625 0.000000 -12.031250 4.250000q-4.515625 4.250000 -5.203125 11.968750z"/>
<path id="c_d41d8cd98f00b204e9800998ecf8427e" d=""/>
<path id="c_9c6d5cbc59c6231647eb409cc6b37bb3" d="M25.390625 -72.906250l8.296875 0.000000l-25.390625 82.187500l-8.296875 0.000000z"/>
<path id="c_72234ddc5dcad8d05c893ef0371171da" d="M9.812500 -72.906250l14.703125 0.000000l18.593750 49.609375l18.703125 -49.609375l14.703125 0.000000l0.000000 72.906250l-9.625000 0.000000l0.000000 -64.015625l-18.796875 50.000000l-9.906250 0.000000l-18.796875 -50.000000l0.000000 64.015625l-9.578125 0.000000z"/>
<path id="c_fe791a90f5471e2ab20a5ed41a7fa451" d="M54.890625 -33.015625l0.000000 33.015625l-8.984375 0.000000l0.000000 -32.718750q0.000000 -7.765625 -3.031250 -11.609375q-3.031250 -3.859375 -9.078125 -3.859375q-7.281250 0.000000 -11.484375 4.640625q-4.203125 4.625000 -4.203125 12.640625l0.000000 30.906250l-9.031250 0.000000l0.000000 -54.687500l9.031250 0.000000l0.000000 8.500000q3.234375 -4.937500 7.593750 -7.375000q4.375000 -2.437500 10.093750 -2.437500q9.421875 0.000000 14.250000 5.828125q4.843750 5.828125 4.843750 17.156250"/>
<path id="c_3b515ad41f960e225ec85275856806ca" d="M8.500000 -21.578125l0.000000 -33.109375l8.984375 0.000000l0.000000 32.765625q0.000000 7.765625 3.015625 11.656250q3.031250 3.875000 9.093750 3.875000q7.265625 0.000000 11.484375 -4.640625q4.234375 -4.640625 4.234375 -12.656250l0.000000 -31.000000l8.984375 0.000000l0.000000 54.687500l-8.984375 0.000000l0.000000 -8.406250q-3.265625 4.984375 -7.593750 7.406250q-4.312500 2.421875 -10.031250 2.421875q-9.421875 0.000000 -14.312500 -5.859375q-4.875000 -5.859375 -4.875000 -17.140625M31.109375 -56.000000z"/>
<path id="c_0f8c41144cfbf448378cb6fd1cc8e549" d="M18.312500 -70.218750l0.000000 15.531250l18.500000 0.000000l0.000000 6.984375l-18.500000 0.000000l0.000000 29.687500q0.000000 6.687500 1.828125 8.593750q1.828125 1.906250 7.453125 1.906250l9.218750 0.000000l0.000000 7.515625l-9.218750 0.000000q-10.406250 0.000000 -14.359375 -3.875000q-3.953125 -3.890625 -3.953125 -14.140625l0.000000 -29.687500l-6.593750 0.000000l0.000000 -6.984375l6.593750 0.000000l0.000000 -15.531250z"/>
<path id="c_8e0810ad13fe20a2a87a2619799b154d" d="M44.281250 -53.078125l0.000000 8.500000q-3.796875 -1.953125 -7.906250 -2.921875q-4.093750 -0.984375 -8.500000 -0.984375q-6.687500 0.000000 -10.031250 2.046875q-3.343750 2.046875 -3.343750 6.156250q0.000000 3.125000 2.390625 4.906250q2.390625 1.781250 9.625000 3.390625l3.078125 0.687500q9.562500 2.046875 13.593750 5.781250q4.031250 3.734375 4.031250 10.421875q0.000000 7.625000 -6.031250 12.078125q-6.031250 4.437500 -16.578125 4.437500q-4.390625 0.000000 -9.156250 -0.859375q-4.765625 -0.859375 -10.031250 -2.562500l0.000000 -9.281250q4.984375 2.593750 9.812500 3.890625q4.828125 1.281250 9.578125 1.281250q6.343750 0.000000 9.750000 -2.171875q3.421875 -2.171875 3.421875 -6.125000q0.000000 -3.656250 -2.468750 -5.609375q-2.453125 -1.953125 -10.812500 -3.765625l-3.125000 -0.734375q-8.343750 -1.750000 -12.062500 -5.390625q-3.703125 -3.640625 -3.703125 -9.984375q0.000000 -7.718750 5.468750 -11.906250q5.468750 -4.203125 15.531250 -4.203125q4.968750 0.000000 9.359375 0.734375q4.406250 0.718750 8.109375 2.187500"/>
</defs>
<g style="fill: #000000; opacity: 1.000000" transform="translate(222.090625,236.087784)scale(0.200000)">
<use xlink:href="#c_9e4b30cbdf32072672ded72e9074c4c9"/>
<use xlink:href="#c_6a63bda47b2f3da1cec6aadd80692cfe" x="57.958984"/>
<use xlink:href="#c_4653c6dfde66c7610eae0911760d3490" x="85.742188"/>
<use xlink:href="#c_0bce5afba2dc6b9024b26277c38ad8e8" x="183.154297"/>
<use xlink:href="#c_d41d8cd98f00b204e9800998ecf8427e" x="244.677734"/>
<use xlink:href="#c_9c6d5cbc59c6231647eb409cc6b37bb3" x="276.464844"/>
<use xlink:href="#c_d41d8cd98f00b204e9800998ecf8427e" x="310.156250"/>
<use xlink:href="#c_72234ddc5dcad8d05c893ef0371171da" x="341.943359"/>
<use xlink:href="#c_6a63bda47b2f3da1cec6aadd80692cfe" x="428.222656"/>
<use xlink:href="#c_fe791a90f5471e2ab20a5ed41a7fa451" x="456.005859"/>
<use xlink:href="#c_3b515ad41f960e225ec85275856806ca" x="519.384766"/>
<use xlink:href="#c_0f8c41144cfbf448378cb6fd1cc8e549" x="582.763672"/>
<use xlink:href="#c_0bce5afba2dc6b9024b26277c38ad8e8" x="621.972656"/>
<use xlink:href="#c_8e0810ad13fe20a2a87a2619799b154d" x="683.496094"/>
</g>
</g>
</g>
<g id="matplotlib.axis2">
<g id="ytick1">
<g id="line2d15">
<defs><path id="m29ceefa58400ae156518509f18f8c112" d="M0.000000 0.000000L6.000000 0.000000"/></defs>
<g ><use style="fill: none; stroke: #000000; stroke-width: 2.000000; stroke-linejoin: round; stroke-linecap: butt;  opacity: 1.000000" xlink:href="#m29ceefa58400ae156518509f18f8c112" x="72.000000" y="200.290909"/>
</g></g>
<g id="line2d16">
<defs><path id="mb5f680a2952446ef8148975d730bbae7" d="M0.000000 0.000000L-6.000000 0.000000"/></defs>
<g ><use style="fill: none; stroke: #000000; stroke-width: 2.000000; stroke-linejoin: round; stroke-linecap: butt;  opacity: 1.000000" xlink:href="#mb5f680a2952446ef8148975d730bbae7" x="518.400000" y="200.290909"/>
</g></g>
<g id="text8">
<defs>
<path id="c_ed3e21196fb739f392806f09ca0594ef" d="M10.687500 -12.406250l10.312500 0.000000l0.000000 12.406250l-10.312500 0.000000z"/>
</defs>
<g style="fill: #000000; opacity: 1.000000" transform="translate(46.578125,205.384659)scale(0.140000)">
<use xlink:href="#c_7a2040fe3b94fcd41d0a72c84e93b115"/>
<use xlink:href="#c_ed3e21196fb739f392806f09ca0594ef" x="63.623047"/>
<use xlink:href="#c_7a2040fe3b94fcd41d0a72c84e93b115" x="95.410156"/>
</g>
</g>
</g>
<g id="ytick2">
<g id="line2d17">
<g ><use style="fill: none; stroke: #000000; stroke-width: 2.000000; stroke-linejoin: round; stroke-linecap: butt;  opacity: 1.000000" xlink:href="#m29ceefa58400ae156518509f18f8c112" x="72.000000" y="168.872727"/>
</g></g>
<g id="line2d18">
<g ><use style="fill: none; stroke: #000000; stroke-width: 2.000000; stroke-linejoin: round; stroke-linecap: butt;  opacity: 1.000000" xlink:href="#mb5f680a2952446ef8148975d730bbae7" x="518.400000" y="168.872727"/>
</g></g>
<g id="text9">
<g style="fill: #000000; opacity: 1.000000" transform="translate(46.953125,173.966477)scale(0.140000)">
<use xlink:href="#c_7a2040fe3b94fcd41d0a72c84e93b115"/>
<use xlink:href="#c_ed3e21196fb739f392806f09ca0594ef" x="63.623047"/>
<use xlink:href="#c_42baa63129a918535c52adb20d687ea7" x="95.410156"/>
</g>
</g>
</g>
<g id="ytick3">
<g id="line2d19">
<g ><use style="fill: none; stroke: #000000; stroke-width: 2.000000; stroke-linejoin: round; stroke-linecap: butt;  opacity: 1.000000" xlink:href="#m29ceefa58400ae156518509f18f8c112" x="72.000000" y="137.454545"/>
</g></g>
<g id="line2d20">
<g ><use style="fill: none; stroke: #000000; stroke-width: 2.000000; stroke-linejoin: round; stroke-linecap: butt;  opacity: 1.000000" xlink:href="#mb5f680a2952446ef8148975d730bbae7" x="518.400000" y="137.454545"/>
</g></g>
<g id="text10">
<g style="fill: #000000; opacity: 1.000000" transform="translate(47.062500,142.548295)scale(0.140000)">
<use xlink:href="#c_7a2040fe3b94fcd41d0a72c84e93b115"/>
<use xlink:href="#c_ed3e21196fb739f392806f09ca0594ef" x="63.623047"/>
<use xlink:href="#c_ed3f3ed3ebfbd18bcb9c012009a68ad1" x="95.410156"/>
</g>
</g>
</g>
<g id="ytick4">
<g id="line2d21">
<g ><use style="fill: none; stroke: #000000; stroke-width: 2.000000; stroke-linejoin: round; stroke-linecap: butt;  opacity: 1.000000" xlink:href="#m29ceefa58400ae156518509f18f8c112" x="72.000000" y="106.036364"/>
</g></g>
<g id="line2d22">
<g ><use style="fill: none; stroke: #000000; stroke-width: 2.000000; stroke-linejoin: round; stroke-linecap: butt;  opacity: 1.000000" xlink:href="#mb5f680a2952446ef8148975d730bbae7" x="518.400000" y="106.036364"/>
</g></g>
<g id="text11">
<defs>
<path id="c_3dcfa38a02242cb63ec6726c6e70be7a" d="M40.578125 -39.312500q7.078125 1.515625 11.046875 6.312500q3.984375 4.781250 3.984375 11.812500q0.000000 10.781250 -7.421875 16.703125q-7.421875 5.906250 -21.093750 5.906250q-4.578125 0.000000 -9.437500 -0.906250q-4.859375 -0.906250 -10.031250 -2.718750l0.000000 -9.515625q4.093750 2.390625 8.968750 3.609375q4.890625 1.218750 10.218750 1.218750q9.265625 0.000000 14.125000 -3.656250q4.859375 -3.656250 4.859375 -10.640625q0.000000 -6.453125 -4.515625 -10.078125q-4.515625 -3.640625 -12.562500 -3.640625l-8.500000 0.000000l0.000000 -8.109375l8.890625 0.000000q7.265625 0.000000 11.125000 -2.906250q3.859375 -2.906250 3.859375 -8.375000q0.000000 -5.609375 -3.984375 -8.609375q-3.968750 -3.015625 -11.390625 -3.015625q-4.062500 0.000000 -8.703125 0.890625q-4.640625 0.875000 -10.203125 2.718750l0.000000 -8.781250q5.625000 -1.562500 10.531250 -2.343750q4.906250 -0.781250 9.250000 -0.781250q11.234375 0.000000 17.765625 5.109375q6.546875 5.093750 6.546875 13.781250q0.000000 6.062500 -3.468750 10.234375q-3.468750 4.171875 -9.859375 5.781250"/>
</defs>
<g style="fill: #000000; opacity: 1.000000" transform="translate(46.781250,111.130114)scale(0.140000)">
<use xlink:href="#c_7a2040fe3b94fcd41d0a72c84e93b115"/>
<use xlink:href="#c_ed3e21196fb739f392806f09ca0594ef" x="63.623047"/>
<use xlink:href="#c_3dcfa38a02242cb63ec6726c6e70be7a" x="95.410156"/>
</g>
</g>
</g>
<g id="ytick5">
<g id="line2d23">
<g ><use style="fill: none; stroke: #000000; stroke-width: 2.000000; stroke-linejoin: round; stroke-linecap: butt;  opacity: 1.000000" xlink:href="#m29ceefa58400ae156518509f18f8c112" x="72.000000" y="74.618182"/>
</g></g>
<g id="line2d24">
<g ><use style="fill: none; stroke: #000000; stroke-width: 2.000000; stroke-linejoin: round; stroke-linecap: butt;  opacity: 1.000000" xlink:href="#mb5f680a2952446ef8148975d730bbae7" x="518.400000" y="74.618182"/>
</g></g>
<g id="text12">
<g style="fill: #000000; opacity: 1.000000" transform="translate(46.437500,79.711932)scale(0.140000)">
<use xlink:href="#c_7a2040fe3b94fcd41d0a72c84e93b115"/>
<use xlink:href="#c_ed3e21196fb739f392806f09ca0594ef" x="63.623047"/>
<use xlink:href="#c_a0416418d96557a09b8c1332d34883ba" x="95.410156"/>
</g>
</g>
</g>
<g id="ytick6">
<g id="line2d25">
<g ><use style="fill: none; stroke: #000000; stroke-width: 2.000000; stroke-linejoin: round; stroke-linecap: butt;  opacity: 1.000000" xlink:href="#m29ceefa58400ae156518509f18f8c112" x="72.000000" y="43.200000"/>
</g></g>
<g id="line2d26">
<g ><use style="fill: none; stroke: #000000; stroke-width: 2.000000; stroke-linejoin: round; stroke-linecap: butt;  opacity: 1.000000" xlink:href="#mb5f680a2952446ef8148975d730bbae7" x="518.400000" y="43.200000"/>
</g></g>
<g id="text13">
<defs>
<path id="c_1260a2df50f305f3db244e29828f968e" d="M10.796875 -72.906250l38.718750 0.000000l0.000000 8.312500l-29.687500 0.000000l0.000000 17.859375q2.140625 -0.734375 4.281250 -1.093750q2.156250 -0.359375 4.312500 -0.359375q12.203125 0.000000 19.328125 6.687500q7.140625 6.687500 7.140625 18.109375q0.000000 11.765625 -7.328125 18.296875q-7.328125 6.515625 -20.656250 6.515625q-4.593750 0.000000 -9.359375 -0.781250q-4.750000 -0.781250 -9.828125 -2.343750l0.000000 -9.921875q4.390625 2.390625 9.078125 3.562500q4.687500 1.171875 9.906250 1.171875q8.453125 0.000000 13.375000 -4.437500q4.937500 -4.437500 4.937500 -12.062500q0.000000 -7.609375 -4.937500 -12.046875q-4.921875 -4.453125 -13.375000 -4.453125q-3.953125 0.000000 -7.890625 0.875000q-3.921875 0.875000 -8.015625 2.734375z"/>
</defs>
<g style="fill: #000000; opacity: 1.000000" transform="translate(46.875000,48.293750)scale(0.140000)">
<use xlink:href="#c_7a2040fe3b94fcd41d0a72c84e93b115"/>
<use xlink:href="#c_ed3e21196fb739f392806f09ca0594ef" x="63.623047"/>
<use xlink:href="#c_1260a2df50f305f3db244e29828f968e" x="95.410156"/>
</g>
</g>
</g>
<g id="text14">
<defs>
<path id="c_814edda51889e387a3dfbce453bfa1ec" d="M9.812500 -72.906250l9.859375 0.000000l0.000000 72.906250l-9.859375 0.000000z"/>
<path id="c_f05dd90d41f04bb96ef1ca503cc2044b" d="M30.609375 -48.390625q-7.218750 0.000000 -11.421875 5.640625q-4.203125 5.640625 -4.203125 15.453125q0.000000 9.812500 4.171875 15.453125q4.187500 5.640625 11.453125 5.640625q7.187500 0.000000 11.375000 -5.656250q4.203125 -5.671875 4.203125 -15.437500q0.000000 -9.718750 -4.203125 -15.406250q-4.187500 -5.687500 -11.375000 -5.687500M30.609375 -56.000000q11.718750 0.000000 18.406250 7.625000q6.703125 7.609375 6.703125 21.078125q0.000000 13.421875 -6.703125 21.078125q-6.687500 7.640625 -18.406250 7.640625q-11.765625 0.000000 -18.437500 -7.640625q-6.656250 -7.656250 -6.656250 -21.078125q0.000000 -13.468750 6.656250 -21.078125q6.671875 -7.625000 18.437500 -7.625000"/>
<path id="c_a469f8ee191679fe73f3b765bd271597" d="M64.406250 -67.281250l0.000000 10.390625q-4.984375 -4.640625 -10.625000 -6.921875q-5.640625 -2.296875 -11.984375 -2.296875q-12.500000 0.000000 -19.140625 7.640625q-6.640625 7.640625 -6.640625 22.093750q0.000000 14.406250 6.640625 22.046875q6.640625 7.640625 19.140625 7.640625q6.343750 0.000000 11.984375 -2.296875q5.640625 -2.296875 10.625000 -6.937500l0.000000 10.312500q-5.171875 3.515625 -10.968750 5.281250q-5.781250 1.750000 -12.218750 1.750000q-16.562500 0.000000 -26.093750 -10.125000q-9.515625 -10.140625 -9.515625 -27.671875q0.000000 -17.578125 9.515625 -27.703125q9.531250 -10.140625 26.093750 -10.140625q6.531250 0.000000 12.312500 1.734375q5.796875 1.734375 10.875000 5.203125"/>
<path id="c_6ec8d5749226675394676a5d2a3b468b" d="M41.109375 -46.296875q-1.515625 -0.875000 -3.296875 -1.281250q-1.781250 -0.421875 -3.921875 -0.421875q-7.625000 0.000000 -11.703125 4.953125q-4.078125 4.953125 -4.078125 14.234375l0.000000 28.812500l-9.031250 0.000000l0.000000 -54.687500l9.031250 0.000000l0.000000 8.500000q2.843750 -4.984375 7.375000 -7.390625q4.546875 -2.421875 11.046875 -2.421875q0.921875 0.000000 2.046875 0.125000q1.125000 0.109375 2.484375 0.359375z"/>
<path id="c_6023715d605f81e6eb43b7f9d77e7c51" d="M34.187500 -63.187500l-13.390625 36.281250l26.812500 0.000000zM28.609375 -72.906250l11.187500 0.000000l27.781250 72.906250l-10.250000 0.000000l-6.640625 -18.703125l-32.859375 0.000000l-6.640625 18.703125l-10.406250 0.000000z"/>
</defs>
<g style="fill: #000000; opacity: 1.000000" transform="translate(41.437500,198.807955)rotate(-90.0)scale(0.200000)">
<use xlink:href="#c_814edda51889e387a3dfbce453bfa1ec"/>
<use xlink:href="#c_f05dd90d41f04bb96ef1ca503cc2044b" x="29.492188"/>
<use xlink:href="#c_fe791a90f5471e2ab20a5ed41a7fa451" x="90.673828"/>
<use xlink:href="#c_d41d8cd98f00b204e9800998ecf8427e" x="154.052734"/>
<use xlink:href="#c_a469f8ee191679fe73f3b765bd271597" x="185.839844"/>
<use xlink:href="#c_3b515ad41f960e225ec85275856806ca" x="255.664062"/>
<use xlink:href="#c_6ec8d5749226675394676a5d2a3b468b" x="319.042969"/>
<use xlink:href="#c_6ec8d5749226675394676a5d2a3b468b" x="358.406250"/>
<use xlink:href="#c_0bce5afba2dc6b9024b26277c38ad8e8" x="397.269531"/>
<use xlink:href="#c_fe791a90f5471e2ab20a5ed41a7fa451" x="458.792969"/>
<use xlink:href="#c_0f8c41144cfbf448378cb6fd1cc8e549" x="522.171875"/>
<use xlink:href="#c_d41d8cd98f00b204e9800998ecf8427e" x="561.380859"/>
<use xlink:href="#c_9c6d5cbc59c6231647eb409cc6b37bb3" x="593.167969"/>
<use xlink:href="#c_d41d8cd98f00b204e9800998ecf8427e" x="626.859375"/>
<use xlink:href="#c_fe791a90f5471e2ab20a5ed41a7fa451" x="658.646484"/>
<use xlink:href="#c_6023715d605f81e6eb43b7f9d77e7c51" x="722.025391"/>
</g>
</g>
</g>
<g id="patch3">
<path style="fill: none; stroke: #000000; stroke-width: 1.000000; stroke-linejoin: round; stroke-linecap: square;  opacity: 1.000000"  d="M72.000000 43.200000L518.400000 43.200000"/>
</g>
<g id="patch4">
<path style="fill: none; stroke: #000000; stroke-width: 1.000000; stroke-linejoin: round; stroke-linecap: square;  opacity: 1.000000"  d="M518.400000 200.290909L518.400000 43.200000"/>
</g>
<g id="patch5">
<path style="fill: none; stroke: #000000; stroke-width: 1.000000; stroke-linejoin: round; stroke-linecap: square;  opacity: 1.000000"  d="M72.000000 200.290909L518.400000 200.290909"/>
</g>
<g id="patch6">
<path style="fill: none; stroke: #000000; stroke-width: 1.000000; stroke-linejoin: round; stroke-linecap: square;  opacity: 1.000000"  d="M72.000000 200.290909L72.000000 43.200000"/>
</g>
</g>
<g id="axes2">
<g id="patch7">
<path style="fill: #ffffff; opacity: 1.000000"  d="M72.000000 388.800000L518.400000 388.800000L518.400000 231.709091
L72.000000 231.709091z"/>
</g>
<g id="line2d27">
<defs>
  <clipPath id="pdceb94b59b302b6d614f8fc54d3b8e04">
<rect x="72.000000" y="231.709091" width="446.400000" height="157.090909"/>
  </clipPath>
</defs><path style="fill: none; stroke: #ff0000; stroke-width: 1.000000; stroke-linejoin: round; stroke-linecap: square;  opacity: 1.000000" clip-path="url(#pdceb94b59b302b6d614f8fc54d3b8e04)" d="M67.660000 324.183000L72.000000 327.455752L76.340000 326.344358
L80.680000 328.753694L85.020000 324.774683L89.360000 328.017537
L93.700000 328.007595L98.040000 326.166877L102.380000 329.813323
L106.720000 333.378752L111.060000 331.054911L115.400000 332.073721
L119.740000 332.908988L124.080000 334.774115L128.420000 330.709525
L132.760000 333.487589L137.100000 335.090346L141.440000 336.892629
L145.780000 334.629434L150.120000 341.385172L154.460000 339.797585
L158.800000 339.891141L163.140000 342.494218L167.480000 340.353576
L171.820000 341.761739L176.160000 342.134082L180.500000 345.132856
L184.840000 350.464862L189.180000 349.026227L193.520000 354.526937
L197.860000 378.520637L202.200000 380.837948L206.540000 343.954732
L210.880000 329.022864L215.220000 340.581148L219.560000 354.184148
L223.900000 379.629910L228.240000 379.512697L232.580000 337.678135
L236.920000 330.427824L241.260000 342.894780L245.600000 379.866790
L249.940000 378.467418L254.280000 345.688233L258.620000 333.734989
L262.960000 349.751638L267.300000 379.222749L271.640000 379.664536
L275.980000 332.891896L280.320000 334.515706L284.660000 378.806314
L289.000000 379.423212L293.340000 350.482174L297.680000 336.084086
L302.020000 368.287639L306.360000 379.647767L310.700000 345.623743
L315.040000 339.294939L319.380000 379.753249L323.720000 380.121107
L328.060000 331.213185L332.400000 349.593096L336.740000 379.515377
L341.080000 349.602961L345.420000 343.149310L349.760000 379.101160
L354.100000 368.075581L358.440000 339.800513L362.780000 379.060121
L367.120000 378.726909L371.460000 339.730753L375.800000 380.068859
L380.140000 380.508786L384.480000 339.621324L388.820000 379.217416
L393.160000 370.869496L397.500000 345.215321L401.840000 380.249771
L406.180000 357.264250L410.520000 380.530914L414.860000 379.255300
L419.200000 349.192376L423.540000 380.028088L427.880000 348.131465
L432.220000 378.331211L436.560000 359.150686L440.900000 379.988992
L445.240000 374.526091L449.580000 378.878272L453.920000 374.443062
L458.260000 379.017897L462.600000 378.696327L466.940000 380.627371
L471.280000 370.154812L475.620000 380.392564L479.960000 359.457609
L484.300000 379.829595L488.640000 359.071597L492.980000 380.240071
L497.320000 379.105383L501.660000 364.807533L506.000000 371.597215
L510.340000 377.519615L514.680000 377.992928L519.020000 379.627995"/>
</g>
<g id="line2d28">
<path style="fill: none; stroke: #0000ff; stroke-width: 1.000000; stroke-linejoin: round; stroke-linecap: square;  opacity: 1.000000" clip-path="url(#pdceb94b59b302b6d614f8fc54d3b8e04)" d="M70.140000 351.838413L74.480000 349.841984L78.820000 348.721612
L83.160000 348.925355L87.500000 347.206569L91.840000 350.256172
L96.180000 347.969981L100.520000 347.748774L104.860000 347.819286
L109.200000 344.334433L113.540000 343.291221L117.880000 342.823276
L122.220000 341.856066L126.560000 340.690122L130.900000 343.509797
L135.240000 342.479247L139.580000 339.312554L143.920000 338.472128
L148.260000 339.314642L152.600000 335.809384L156.940000 331.687896
L161.280000 331.787252L165.620000 327.401754L169.960000 328.975990
L174.300000 330.921115L178.640000 326.787929L182.980000 322.962596
L187.320000 317.598783L191.660000 315.509535L196.000000 276.729832
L200.340000 276.039288L204.680000 283.208898L209.020000 346.568507
L213.360000 344.087681L217.700000 328.642639L222.040000 281.083096
L226.380000 279.398157L230.720000 303.728831L235.060000 350.187094
L239.400000 339.839575L243.740000 310.840489L248.080000 276.558090
L252.420000 285.776488L256.760000 348.864626L261.100000 334.962846
L265.440000 283.098319L269.780000 281.781232L274.120000 321.175565
L278.460000 347.066338L282.800000 320.933436L287.140000 280.809385
L291.480000 281.620760L295.820000 344.784136L300.160000 326.547597
L304.500000 278.280245L308.840000 284.298723L313.180000 341.810328
L317.520000 313.621184L321.860000 281.223760L326.200000 323.986773
L330.540000 336.284280L334.880000 278.355358L339.220000 278.777428
L343.560000 336.768836L347.900000 280.397360L352.240000 272.801636
L356.580000 334.625314L360.920000 312.606562L365.260000 274.310038
L369.600000 323.966890L373.940000 318.303161L378.280000 284.576752
L382.620000 322.506989L386.960000 308.508525L391.300000 277.606958
L395.640000 328.102598L399.980000 281.321319L404.320000 280.931319
L408.660000 322.050142L413.000000 279.269824L417.340000 322.554807
L421.680000 279.694877L426.020000 297.120750L430.360000 308.017900
L434.700000 278.230560L439.040000 318.997935L443.380000 281.046941
L447.720000 316.002068L452.060000 281.708088L456.400000 316.369231
L460.740000 279.208454L465.080000 315.970867L469.420000 280.604169
L473.760000 310.720623L478.100000 278.879327L482.440000 282.385398
L486.780000 304.111522L491.120000 279.045234L495.460000 308.717325
L499.800000 285.510825L504.140000 278.499172L508.480000 279.671736
L512.820000 293.864291L517.160000 296.982807L521.500000 283.779879"/>
</g>
<g id="matplotlib.axis3">
<g id="xtick7">
<g id="line2d29">
<g ><use style="fill: none; stroke: #000000; stroke-width: 2.000000; stroke-linejoin: round; stroke-linecap: butt;  opacity: 1.000000" xlink:href="#m6c1db36b5266faadb5cf818529feee81" x="72.000000" y="388.800000"/>
</g></g>
<g id="line2d30">
<g ><use style="fill: none; stroke: #000000; stroke-width: 2.000000; stroke-linejoin: round; stroke-linecap: butt;  opacity: 1.000000" xlink:href="#mdd338e0e57396f882d6b666f0598d692" x="72.000000" y="231.709091"/>
</g></g>
<g id="text15">
<g style="fill: #000000; opacity: 1.000000" transform="translate(59.546875,404.190625)scale(0.140000)">
<use xlink:href="#c_cd96f817f3cab988d24a2b49a5577fe6"/>
<use xlink:href="#c_1260a2df50f305f3db244e29828f968e" x="63.623047"/>
<use xlink:href="#c_7a2040fe3b94fcd41d0a72c84e93b115" x="127.246094"/>
</g>
</g>
</g>
<g id="xtick8">
<g id="line2d31">
<g ><use style="fill: none; stroke: #000000; stroke-width: 2.000000; stroke-linejoin: round; stroke-linecap: butt;  opacity: 1.000000" xlink:href="#m6c1db36b5266faadb5cf818529feee81" x="146.400000" y="388.800000"/>
</g></g>
<g id="line2d32">
<g ><use style="fill: none; stroke: #000000; stroke-width: 2.000000; stroke-linejoin: round; stroke-linecap: butt;  opacity: 1.000000" xlink:href="#mdd338e0e57396f882d6b666f0598d692" x="146.400000" y="231.709091"/>
</g></g>
<g id="text16">
<g style="fill: #000000; opacity: 1.000000" transform="translate(134.095312,404.190625)scale(0.140000)">
<use xlink:href="#c_cd96f817f3cab988d24a2b49a5577fe6"/>
<use xlink:href="#c_1260a2df50f305f3db244e29828f968e" x="63.623047"/>
<use xlink:href="#c_1260a2df50f305f3db244e29828f968e" x="127.246094"/>
</g>
</g>
</g>
<g id="xtick9">
<g id="line2d33">
<g ><use style="fill: none; stroke: #000000; stroke-width: 2.000000; stroke-linejoin: round; stroke-linecap: butt;  opacity: 1.000000" xlink:href="#m6c1db36b5266faadb5cf818529feee81" x="220.800000" y="388.800000"/>
</g></g>
<g id="line2d34">
<g ><use style="fill: none; stroke: #000000; stroke-width: 2.000000; stroke-linejoin: round; stroke-linecap: butt;  opacity: 1.000000" xlink:href="#mdd338e0e57396f882d6b666f0598d692" x="220.800000" y="231.709091"/>
</g></g>
<g id="text17">
<g style="fill: #000000; opacity: 1.000000" transform="translate(208.346875,404.190625)scale(0.140000)">
<use xlink:href="#c_cd96f817f3cab988d24a2b49a5577fe6"/>
<use xlink:href="#c_cc8d6d580d1b10c8632f7a42cd53db8a" x="63.623047"/>
<use xlink:href="#c_7a2040fe3b94fcd41d0a72c84e93b115" x="127.246094"/>
</g>
</g>
</g>
<g id="xtick10">
<g id="line2d35">
<g ><use style="fill: none; stroke: #000000; stroke-width: 2.000000; stroke-linejoin: round; stroke-linecap: butt;  opacity: 1.000000" xlink:href="#m6c1db36b5266faadb5cf818529feee81" x="295.200000" y="388.800000"/>
</g></g>
<g id="line2d36">
<g ><use style="fill: none; stroke: #000000; stroke-width: 2.000000; stroke-linejoin: round; stroke-linecap: butt;  opacity: 1.000000" xlink:href="#mdd338e0e57396f882d6b666f0598d692" x="295.200000" y="231.709091"/>
</g></g>
<g id="text18">
<g style="fill: #000000; opacity: 1.000000" transform="translate(282.895312,404.190625)scale(0.140000)">
<use xlink:href="#c_cd96f817f3cab988d24a2b49a5577fe6"/>
<use xlink:href="#c_cc8d6d580d1b10c8632f7a42cd53db8a" x="63.623047"/>
<use xlink:href="#c_1260a2df50f305f3db244e29828f968e" x="127.246094"/>
</g>
</g>
</g>
<g id="xtick11">
<g id="line2d37">
<g ><use style="fill: none; stroke: #000000; stroke-width: 2.000000; stroke-linejoin: round; stroke-linecap: butt;  opacity: 1.000000" xlink:href="#m6c1db36b5266faadb5cf818529feee81" x="369.600000" y="388.800000"/>
</g></g>
<g id="line2d38">
<g ><use style="fill: none; stroke: #000000; stroke-width: 2.000000; stroke-linejoin: round; stroke-linecap: butt;  opacity: 1.000000" xlink:href="#mdd338e0e57396f882d6b666f0598d692" x="369.600000" y="231.709091"/>
</g></g>
<g id="text19">
<defs>
<path id="c_956f18cfdaf972f35a6c2b4aaac2532b" d="M8.203125 -72.906250l46.875000 0.000000l0.000000 4.203125l-26.468750 68.703125l-10.296875 0.000000l24.906250 -64.593750l-35.015625 0.000000z"/>
</defs>
<g style="fill: #000000; opacity: 1.000000" transform="translate(357.146875,404.190625)scale(0.140000)">
<use xlink:href="#c_cd96f817f3cab988d24a2b49a5577fe6"/>
<use xlink:href="#c_956f18cfdaf972f35a6c2b4aaac2532b" x="63.623047"/>
<use xlink:href="#c_7a2040fe3b94fcd41d0a72c84e93b115" x="127.246094"/>
</g>
</g>
</g>
<g id="xtick12">
<g id="line2d39">
<g ><use style="fill: none; stroke: #000000; stroke-width: 2.000000; stroke-linejoin: round; stroke-linecap: butt;  opacity: 1.000000" xlink:href="#m6c1db36b5266faadb5cf818529feee81" x="444.000000" y="388.800000"/>
</g></g>
<g id="line2d40">
<g ><use style="fill: none; stroke: #000000; stroke-width: 2.000000; stroke-linejoin: round; stroke-linecap: butt;  opacity: 1.000000" xlink:href="#mdd338e0e57396f882d6b666f0598d692" x="444.000000" y="231.709091"/>
</g></g>
<g id="text20">
<g style="fill: #000000; opacity: 1.000000" transform="translate(431.695312,404.190625)scale(0.140000)">
<use xlink:href="#c_cd96f817f3cab988d24a2b49a5577fe6"/>
<use xlink:href="#c_956f18cfdaf972f35a6c2b4aaac2532b" x="63.623047"/>
<use xlink:href="#c_1260a2df50f305f3db244e29828f968e" x="127.246094"/>
</g>
</g>
</g>
<g id="xtick13">
<g id="line2d41">
<g ><use style="fill: none; stroke: #000000; stroke-width: 2.000000; stroke-linejoin: round; stroke-linecap: butt;  opacity: 1.000000" xlink:href="#m6c1db36b5266faadb5cf818529feee81" x="518.400000" y="388.800000"/>
</g></g>
<g id="line2d42">
<g ><use style="fill: none; stroke: #000000; stroke-width: 2.000000; stroke-linejoin: round; stroke-linecap: butt;  opacity: 1.000000" xlink:href="#mdd338e0e57396f882d6b666f0598d692" x="518.400000" y="231.709091"/>
</g></g>
<g id="text21">
<g style="fill: #000000; opacity: 1.000000" transform="translate(505.946875,404.190625)scale(0.140000)">
<use xlink:href="#c_cd96f817f3cab988d24a2b49a5577fe6"/>
<use xlink:href="#c_bef35738d52871942e50b9de9b122bab" x="63.623047"/>
<use xlink:href="#c_7a2040fe3b94fcd41d0a72c84e93b115" x="127.246094"/>
</g>
</g>
</g>
</g>
<g id="matplotlib.axis4">
<g id="ytick7">
<g id="line2d43">
<g ><use style="fill: none; stroke: #000000; stroke-width: 2.000000; stroke-linejoin: round; stroke-linecap: butt;  opacity: 1.000000" xlink:href="#m29ceefa58400ae156518509f18f8c112" x="72.000000" y="388.800000"/>
</g></g>
<g id="line2d44">
<g ><use style="fill: none; stroke: #000000; stroke-width: 2.000000; stroke-linejoin: round; stroke-linecap: butt;  opacity: 1.000000" xlink:href="#mb5f680a2952446ef8148975d730bbae7" x="518.400000" y="388.800000"/>
</g></g>
<g id="text22">
<g style="fill: #000000; opacity: 1.000000" transform="translate(46.578125,393.893750)scale(0.140000)">
<use xlink:href="#c_7a2040fe3b94fcd41d0a72c84e93b115"/>
<use xlink:href="#c_ed3e21196fb739f392806f09ca0594ef" x="63.623047"/>
<use xlink:href="#c_7a2040fe3b94fcd41d0a72c84e93b115" x="95.410156"/>
</g>
</g>
</g>
<g id="ytick8">
<g id="line2d45">
<g ><use style="fill: none; stroke: #000000; stroke-width: 2.000000; stroke-linejoin: round; stroke-linecap: butt;  opacity: 1.000000" xlink:href="#m29ceefa58400ae156518509f18f8c112" x="72.000000" y="357.381818"/>
</g></g>
<g id="line2d46">
<g ><use style="fill: none; stroke: #000000; stroke-width: 2.000000; stroke-linejoin: round; stroke-linecap: butt;  opacity: 1.000000" xlink:href="#mb5f680a2952446ef8148975d730bbae7" x="518.400000" y="357.381818"/>
</g></g>
<g id="text23">
<g style="fill: #000000; opacity: 1.000000" transform="translate(46.953125,362.475568)scale(0.140000)">
<use xlink:href="#c_7a2040fe3b94fcd41d0a72c84e93b115"/>
<use xlink:href="#c_ed3e21196fb739f392806f09ca0594ef" x="63.623047"/>
<use xlink:href="#c_42baa63129a918535c52adb20d687ea7" x="95.410156"/>
</g>
</g>
</g>
<g id="ytick9">
<g id="line2d47">
<g ><use style="fill: none; stroke: #000000; stroke-width: 2.000000; stroke-linejoin: round; stroke-linecap: butt;  opacity: 1.000000" xlink:href="#m29ceefa58400ae156518509f18f8c112" x="72.000000" y="325.963636"/>
</g></g>
<g id="line2d48">
<g ><use style="fill: none; stroke: #000000; stroke-width: 2.000000; stroke-linejoin: round; stroke-linecap: butt;  opacity: 1.000000" xlink:href="#mb5f680a2952446ef8148975d730bbae7" x="518.400000" y="325.963636"/>
</g></g>
<g id="text24">
<g style="fill: #000000; opacity: 1.000000" transform="translate(47.062500,331.057386)scale(0.140000)">
<use xlink:href="#c_7a2040fe3b94fcd41d0a72c84e93b115"/>
<use xlink:href="#c_ed3e21196fb739f392806f09ca0594ef" x="63.623047"/>
<use xlink:href="#c_ed3f3ed3ebfbd18bcb9c012009a68ad1" x="95.410156"/>
</g>
</g>
</g>
<g id="ytick10">
<g id="line2d49">
<g ><use style="fill: none; stroke: #000000; stroke-width: 2.000000; stroke-linejoin: round; stroke-linecap: butt;  opacity: 1.000000" xlink:href="#m29ceefa58400ae156518509f18f8c112" x="72.000000" y="294.545455"/>
</g></g>
<g id="line2d50">
<g ><use style="fill: none; stroke: #000000; stroke-width: 2.000000; stroke-linejoin: round; stroke-linecap: butt;  opacity: 1.000000" xlink:href="#mb5f680a2952446ef8148975d730bbae7" x="518.400000" y="294.545455"/>
</g></g>
<g id="text25">
<g style="fill: #000000; opacity: 1.000000" transform="translate(46.781250,299.639205)scale(0.140000)">
<use xlink:href="#c_7a2040fe3b94fcd41d0a72c84e93b115"/>
<use xlink:href="#c_ed3e21196fb739f392806f09ca0594ef" x="63.623047"/>
<use xlink:href="#c_3dcfa38a02242cb63ec6726c6e70be7a" x="95.410156"/>
</g>
</g>
</g>
<g id="ytick11">
<g id="line2d51">
<g ><use style="fill: none; stroke: #000000; stroke-width: 2.000000; stroke-linejoin: round; stroke-linecap: butt;  opacity: 1.000000" xlink:href="#m29ceefa58400ae156518509f18f8c112" x="72.000000" y="263.127273"/>
</g></g>
<g id="line2d52">
<g ><use style="fill: none; stroke: #000000; stroke-width: 2.000000; stroke-linejoin: round; stroke-linecap: butt;  opacity: 1.000000" xlink:href="#mb5f680a2952446ef8148975d730bbae7" x="518.400000" y="263.127273"/>
</g></g>
<g id="text26">
<g style="fill: #000000; opacity: 1.000000" transform="translate(46.437500,268.221023)scale(0.140000)">
<use xlink:href="#c_7a2040fe3b94fcd41d0a72c84e93b115"/>
<use xlink:href="#c_ed3e21196fb739f392806f09ca0594ef" x="63.623047"/>
<use xlink:href="#c_a0416418d96557a09b8c1332d34883ba" x="95.410156"/>
</g>
</g>
</g>
<g id="ytick12">
<g id="line2d53">
<g ><use style="fill: none; stroke: #000000; stroke-width: 2.000000; stroke-linejoin: round; stroke-linecap: butt;  opacity: 1.000000" xlink:href="#m29ceefa58400ae156518509f18f8c112" x="72.000000" y="231.709091"/>
</g></g>
<g id="line2d54">
<g ><use style="fill: none; stroke: #000000; stroke-width: 2.000000; stroke-linejoin: round; stroke-linecap: butt;  opacity: 1.000000" xlink:href="#mb5f680a2952446ef8148975d730bbae7" x="518.400000" y="231.709091"/>
</g></g>
<g id="text27">
<g style="fill: #000000; opacity: 1.000000" transform="translate(46.875000,236.802841)scale(0.140000)">
<use xlink:href="#c_7a2040fe3b94fcd41d0a72c84e93b115"/>
<use xlink:href="#c_ed3e21196fb739f392806f09ca0594ef" x="63.623047"/>
<use xlink:href="#c_1260a2df50f305f3db244e29828f968e" x="95.410156"/>
</g>
</g>
</g>
</g>
<g id="patch8">
<path style="fill: none; stroke: #000000; stroke-width: 1.000000; stroke-linejoin: round; stroke-linecap: square;  opacity: 1.000000"  d="M72.000000 231.709091L518.400000 231.709091"/>
</g>
<g id="patch9">
<path style="fill: none; stroke: #000000; stroke-width: 1.000000; stroke-linejoin: round; stroke-linecap: square;  opacity: 1.000000"  d="M518.400000 388.800000L518.400000 231.709091"/>
</g>
<g id="patch10">
<path style="fill: none; stroke: #000000; stroke-width: 1.000000; stroke-linejoin: round; stroke-linecap: square;  opacity: 1.000000"  d="M72.000000 388.800000L518.400000 388.800000"/>
</g>
<g id="patch11">
<path style="fill: none; stroke: #000000; stroke-width: 1.000000; stroke-linejoin: round; stroke-linecap: square;  opacity: 1.000000"  d="M72.000000 388.800000L72.000000 231.709091"/>
</g>
</g>
</g>
</svg>
