<?xml version="1.0" standalone="no"?>
<!DOCTYPE svg PUBLIC "-//W3C//DTD SVG 1.1//EN"
  "http://www.w3.org/Graphics/SVG/1.1/DTD/svg11.dtd">
<!-- Created with matplotlib (http://matplotlib.sourceforge.net/) -->
<svg width="576pt" height="432pt" viewBox="0 0 576 432"
   xmlns="http://www.w3.org/2000/svg"
   xmlns:xlink="http://www.w3.org/1999/xlink"
   version="1.1"
   id="svg1">
<filter id="colorAdd"><feComposite in="SourceGraphic" in2="BackgroundImage" operator="arithmetic" k2="1" k3="1"/></filter>
<g id="figure1">
<g id="patch1">
<path style="fill: #ffffff; stroke: #ffffff; stroke-width: 1.000000; stroke-linejoin: round; stroke-linecap: square;  opacity: 1.000000"  d="M0.000000 432.000000L576.000000 432.000000L576.000000 0.000000
L0.000000 0.000000z"/>
</g>
<g id="axes1">
<g id="patch2">
<path style="fill: #ffffff; opacity: 1.000000"  d="M72.000000 388.800000L518.400000 388.800000L518.400000 43.200000
L72.000000 43.200000z"/>
</g>
<g id="line2d1">
<defs>
  <clipPath id="p50431ccdcb28178602d99d9270004dde">
<rect x="72.000000" y="43.200000" width="446.400000" height="345.600000"/>
  </clipPath>
</defs><path style="fill: none; stroke: #ff0000; stroke-width: 1.000000; stroke-linejoin: round; stroke-linecap: square;  opacity: 1.000000" clip-path="url(#p50431ccdcb28178602d99d9270004dde)" d="M-1.000000 364.652865L-0.641455 365.306951L-0.235636 365.034224
L0.170182 365.390587L0.576000 364.921854L0.981818 364.631254
L1.387636 364.527771L1.793455 365.289770L2.199273 365.049232
L2.605091 364.406515L3.416727 364.414661L3.822545 364.709014
L4.228364 365.163774L4.634182 365.011908L5.040000 364.045264
L5.445818 364.162620L6.663273 363.620226L7.069091 364.206956
L7.474909 364.185331L7.880727 364.660334L8.286545 364.323226
L8.692364 363.546811L9.098182 364.102338L9.504000 363.573965
L9.909818 363.913196L10.721455 363.553574L11.533091 362.994394
L11.938909 362.856746L12.344727 363.411088L12.750545 362.989358
L13.156364 362.922015L13.562182 363.184474L13.968000 362.861930
L14.373818 362.187763L14.779636 362.991431L15.185455 363.170946
L15.591273 362.166287L15.997091 362.498063L16.402909 362.508727
L16.808727 362.667160L17.214545 362.196897L17.620364 362.296183
L18.026182 361.631248L18.432000 361.876773L18.837818 361.317592
L19.243636 362.064384L19.649455 360.807091L20.055273 361.093742
L20.461091 361.081201L20.866909 361.603057L21.272727 360.735848
L21.678545 360.681935L22.084364 361.195003L22.490182 361.528062
L22.896000 361.662896L23.301818 361.301349L23.707636 361.484171
L24.113455 362.447704L24.519273 363.098271L24.925091 363.202692
L25.736727 362.804709L26.142545 363.680607L26.548364 363.455276
L26.954182 362.783775L27.360000 363.362507L27.765818 363.262431
L28.171636 363.444562L28.577455 363.890880L29.389091 363.459472
L29.794909 363.623830L30.200727 363.539454L30.606545 363.206641
L31.418182 363.867873L32.635636 362.824260L33.447273 363.262283
L33.853091 362.832011L34.258909 363.591788L34.664727 362.544126
L35.070545 363.046036L35.476364 363.129375L35.882182 362.682662
L36.288000 362.428745L36.693818 363.039075L37.099636 362.578785
L37.505455 363.288549L37.911273 362.261475L38.317091 363.131004
L38.722909 361.987710L39.128727 362.045672L39.534545 361.717056
L39.940364 362.568614L40.346182 361.717994L40.752000 361.710095
L41.157818 362.226668L41.563636 361.906050L41.969455 361.974775
L42.375273 361.490244L42.781091 361.843101L43.186909 361.973294
L43.592727 361.638506L43.998545 361.485998L45.216000 361.355904
L45.621818 362.194675L46.027636 361.477358L46.433455 361.803851
L46.839273 361.127314L47.245091 361.515966L47.650909 362.064927
L48.056727 362.096821L48.462545 361.724067L49.274182 361.273898
L50.085818 360.646486L50.491636 361.222107L50.897455 361.005861
L51.709091 360.039365L52.114909 361.466693L52.520727 360.900749
L52.926545 360.704942L53.332364 360.810350L53.738182 360.686576
L54.144000 360.895713L54.549818 360.611975L54.955636 360.839035
L55.361455 360.524588L55.767273 360.373215L56.173091 360.538511
L56.578909 360.308193L56.984727 361.196237L57.796364 359.918504
L58.202182 360.204513L58.608000 360.900058L59.013818 360.222385
L59.825455 359.721858L60.231273 359.408102L61.042909 359.924231
L61.448727 359.804950L61.854545 359.531778L63.072000 359.215011
L63.477818 359.640938L63.883636 359.784362L64.289455 359.735978
L64.695273 358.875730L65.101091 358.537190L65.506909 358.994913
L65.912727 358.511665L66.318545 358.897108L66.724364 358.834357
L67.130182 358.403394L67.536000 358.350912L67.941818 358.791848
L68.347636 358.360786L68.753455 357.600022L69.159273 358.453210
L69.970909 358.611988L70.376727 359.103481L70.782545 358.229606
L71.188364 358.621171L71.594182 358.352936L72.405818 357.627423
L72.811636 358.464269L73.217455 358.153871L73.623273 358.263031
L74.029091 357.733029L74.434909 356.960119L74.840727 357.519497
L75.246545 357.774747L76.058182 357.036546L76.464000 357.095940
L76.869818 357.659515L77.275636 357.454031L77.681455 357.428012
L78.087273 357.700295L78.493091 356.796058L78.898909 356.212191
L79.304727 357.452006L79.710545 357.135338L80.116364 357.438824
L80.522182 356.448976L80.928000 356.868239L81.333818 355.804926
L82.957091 356.766484L83.362909 356.546781L83.768727 355.420965
L84.174545 355.982367L84.580364 356.755129L84.986182 356.573442
L85.392000 355.794262L85.797818 355.794262L86.203636 355.415386
L86.609455 356.504618L87.015273 355.166159L87.421091 355.074278
L87.826909 355.956398L88.232727 355.809221L88.638545 355.014539
L89.044364 355.283712L89.450182 355.134758L89.856000 354.322253
L90.261818 355.737929L90.667636 354.095984L91.073455 354.504137
L91.479273 354.319636L92.290909 354.766694L92.696727 354.243703
L93.102545 354.635761L93.508364 354.060436L93.914182 354.029974
L94.725818 353.565833L95.131636 353.079623L96.349091 353.018008
L96.754909 352.163833L97.160727 352.686232L97.972364 352.707215
L98.378182 352.935557L98.784000 352.436758L99.189818 352.229398
L99.595636 351.515487L100.001455 352.517530L100.407273 352.678135
L100.813091 352.172127L101.218909 351.877577L101.624727 351.421780
L102.030545 351.523930L102.436364 350.882792L102.842182 350.810512
L103.248000 350.292952L103.653818 350.628727L104.059636 349.996575
L104.465455 348.961799L104.871273 348.971081L105.277091 348.526245
L105.682909 349.322359L106.494545 350.267723L106.900364 351.406179
L107.306182 351.010911L107.712000 352.413850L108.117818 350.786074
L108.523636 351.013133L108.929455 349.313225L109.335273 349.116332
L109.741091 347.180725L110.146909 347.623883L110.552727 345.805533
L111.364364 344.050330L111.770182 342.241657L112.176000 343.631216
L112.581818 346.935349L112.987636 348.147664L113.393455 350.265008
L113.799273 350.538130L114.205091 351.193536L114.610909 351.437480
L115.422545 355.410152L115.828364 355.509241L116.234182 354.794688
L116.640000 353.640384L117.045818 353.093595L117.451636 353.401426
L117.857455 353.929157L118.263273 350.180928L118.669091 343.592015
L119.074909 340.878709L119.480727 340.995423L119.886545 335.673874
L120.292364 328.890734L120.698182 330.122057L121.104000 339.643683
L121.915636 351.249227L122.321455 353.909458L123.133091 360.085083
L123.538909 362.224940L123.944727 362.803178L124.350545 365.288091
L124.756364 366.943219L125.162182 369.332105L125.568000 370.182429
L125.973818 370.749016L126.785455 371.153960L127.191273 371.277833
L128.002909 370.736031L128.408727 370.530300L128.814545 370.832651
L129.220364 370.495839L129.626182 370.650075L130.032000 371.237052
L130.437818 370.773010L131.249455 371.377613L131.655273 371.308246
L132.466909 370.805694L132.872727 371.291015L133.278545 371.320046
L133.684364 370.854769L134.090182 370.713715L134.496000 370.995922
L134.901818 370.768863L135.307636 371.420665L135.713455 370.483447
L136.119273 370.949513L136.525091 370.931344L136.930909 370.558689
L137.336727 370.791574L137.742545 370.312622L138.148364 370.569156
L138.554182 371.188323L138.960000 370.911547L139.365818 370.200549
L139.771636 370.648446L140.177455 370.364116L140.583273 370.485570
L140.989091 370.919594L141.394909 370.784859L141.800727 370.468487
L142.206545 370.756273L142.612364 370.860052L143.018182 370.411365
L143.424000 370.282061L143.829818 371.006093L144.235636 370.918212
L145.047273 369.951766L145.453091 370.818185L145.858909 370.676539
L146.264727 370.379224L146.670545 370.582042L147.888000 370.127084
L148.293818 370.420548L149.105455 370.670762L149.917091 370.074898
L150.728727 370.781996L151.134545 369.559263L151.540364 370.215656
L151.946182 370.449924L152.352000 370.156855L152.757818 370.724182
L153.163636 369.929598L153.569455 369.753688L153.975273 369.862502
L154.381091 369.657660L154.786909 369.744949L155.192727 370.335481
L156.004364 369.749639L156.410182 370.396257L156.816000 369.826906
L157.221818 369.716659L157.627636 370.170827L158.033455 370.141500
L158.439273 369.699182L158.845091 370.025626L159.250909 369.694047
L159.656727 369.822166L160.062545 369.832978L160.874182 369.225808
L161.280000 369.663141L162.091636 369.929648L162.497455 369.386167
L162.903273 369.542082L163.309091 369.274439L163.714909 369.652279
L164.526545 369.024768L165.338182 369.694936L165.744000 369.819352
L166.149818 369.025311L166.555636 369.627544L166.961455 369.189125
L167.367273 369.741098L167.773091 368.821506L168.178909 369.462298
L168.584727 368.823876L168.990545 369.199099L169.396364 369.167353
L169.802182 369.309296L170.208000 368.689042L170.613818 369.458644
L171.019636 369.000872L171.425455 369.291472L171.831273 368.979692
L172.237091 369.251679L173.048727 368.526462L173.454545 368.640115
L173.860364 368.092240L174.266182 368.942268L175.077818 368.269583
L175.889455 368.648558L176.295273 369.158021L176.701091 368.605012
L177.106909 368.996873L177.512727 368.977717L177.918545 368.297724
L178.324364 368.517575L178.730182 368.264251L179.947636 368.213546
L181.976727 368.683266L182.382545 368.417944L182.788364 367.376453
L183.194182 368.157411L183.600000 367.755675L184.005818 368.069233
L184.411636 368.569514L185.223273 368.327693L185.629091 367.995324
L186.034909 368.665245L186.440727 367.557350L186.846545 368.884454
L187.252364 368.243465L188.064000 367.551080L188.469818 367.523531
L188.875636 367.310740L189.687273 367.910554L190.093091 367.926056
L190.498909 367.718943L190.904727 367.820747L191.310545 367.403904
L191.716364 367.680088L192.528000 367.512077L193.339636 368.034427
L194.151273 367.150332L194.557091 367.440636L194.962909 367.416197
L195.368727 367.654267L195.774545 366.824827L196.180364 367.452337
L196.586182 367.240040L196.992000 367.641924L197.397818 367.048973
L199.021091 367.071980L199.426909 367.464187L199.832727 367.684581
L200.238545 366.969830L200.644364 367.455744L201.456000 367.326045
L201.861818 366.989283L202.267636 367.048775L202.673455 366.772246
L203.079273 367.123919L203.485091 366.303958L203.890909 366.572588
L204.296727 366.395295L204.702545 367.137051L205.108364 366.191243
L205.514182 366.494235L205.920000 365.844359L206.325818 366.445901
L206.731636 366.268707L207.137455 366.793673L207.543273 366.653903
L207.949091 366.189416L208.354909 366.509936L208.760727 365.999830
L209.166545 366.978075L209.572364 366.031378L209.978182 366.492112
L210.789818 366.435780L211.195636 365.756676L211.601455 366.399097
L212.007273 366.554913L212.413091 366.535609L212.818909 365.990301
L213.224727 366.071962L213.630545 365.575680L214.036364 366.546273
L214.442182 365.874871L214.848000 366.167495L215.253818 365.523494
L215.659636 365.715204L216.065455 365.776424L216.471273 364.987666
L216.877091 366.100350L217.688727 365.927451L218.094545 365.495797
L218.500364 365.685285L218.906182 365.191718L219.717818 365.301718
L220.123636 364.878309L220.529455 365.017437L220.935273 364.950490
L221.341091 365.612116L221.746909 365.499451L222.152727 365.720091
L222.558545 364.571613L222.964364 364.500469L223.370182 364.779171
L223.776000 365.592861L224.181818 365.286265L224.587636 365.798197
L224.993455 365.221637L225.399273 364.877667L226.210909 364.706743
L226.616727 365.168168L227.022545 364.305403L227.428364 365.241830
L227.834182 365.121808L228.240000 364.453270L228.645818 364.690944
L229.051636 364.570330L229.457455 364.618516L229.863273 364.353787
L230.269091 364.371906L230.674909 364.108262L231.080727 364.557987
L231.486545 363.949385L231.892364 364.104658L232.298182 364.636734
L232.704000 364.595904L233.109818 364.083231L233.515636 363.956939
L233.921455 363.432960L234.327273 364.337988L234.733091 364.722245
L235.138909 364.381780L235.544727 363.775499L235.950545 364.228087
L236.356364 363.757725L236.762182 364.423647L237.168000 363.497982
L237.573818 363.522865L237.979636 364.676281L238.385455 363.291659
L238.791273 363.917936L239.197091 363.926526L239.602909 364.120457
L240.008727 363.581519L240.414545 362.728479L241.226182 363.371591
L241.632000 362.937863L242.037818 363.670042L242.443636 363.773327
L242.849455 363.414298L243.255273 363.343005L243.661091 362.963783
L244.066909 362.881629L244.472727 362.556716L244.878545 363.378108
L245.690182 362.459997L246.501818 363.102764L246.907636 363.194891
L247.313455 362.768914L247.719273 362.550001L248.125091 362.195021
L248.530909 362.585401L249.342545 361.644233L249.748364 362.859511
L250.154182 362.679749L250.560000 361.838362L250.965818 362.727344
L251.371636 361.866256L251.777455 362.539436L252.183273 362.559382
L252.589091 362.369499L252.994909 361.788793L253.400727 362.636846
L253.806545 361.214850L254.212364 362.421488L254.618182 361.316555
L255.024000 361.889560L255.429818 361.355163L255.835636 361.097593
L256.241455 361.643739L256.647273 361.747271L257.053091 361.622855
L257.458909 361.717155L257.864727 361.388094L258.270545 361.328997
L259.082182 361.816243L259.488000 361.130721L259.893818 361.269998
L260.299636 361.635791L260.705455 361.038594L261.111273 361.018006
L261.517091 361.268813L261.922909 360.562604L262.328727 360.817114
L263.140364 360.050721L263.546182 360.744340L263.952000 360.701486
L264.357818 360.983298L264.763636 360.763792L265.169455 359.777993
L265.981091 360.578847L266.386909 360.134603L267.198545 360.154796
L267.604364 360.395778L268.010182 359.936624L268.416000 359.715193
L269.227636 359.921664L269.633455 359.555279L270.039273 360.467613
L270.445091 359.784955L270.850909 358.779357L271.256727 359.604107
L271.662545 359.116169L272.068364 358.344741L272.474182 359.204297
L274.097455 359.265616L274.503273 359.768415L274.909091 358.949837
L275.314909 358.818756L275.720727 358.502680L276.126545 358.476760
L276.532364 358.113979L276.938182 358.288951L277.344000 358.167941
L277.749818 358.699820L278.155636 358.570467L278.561455 357.857148
L278.967273 358.458147L279.373091 358.286334L279.778909 357.551885
L280.184727 357.185351L280.590545 357.052443L280.996364 357.304435
L281.402182 357.379825L281.808000 356.672037L282.213818 357.100136
L283.025455 357.425840L283.837091 357.950608L284.242909 357.033830
L284.648727 357.197151L285.054545 357.797952L285.460364 357.475013
L287.083636 359.209728L287.489455 360.230877L287.895273 360.621504
L288.301091 361.531271L288.706909 360.524588L290.330182 354.741021
L291.141818 351.746693L291.547636 352.242827L291.953455 350.109784
L292.765091 347.414696L293.170909 349.007567L294.388364 358.944110
L294.794182 361.132202L296.011636 363.591047L296.417455 366.752201
L296.823273 368.104929L297.634909 374.344786L298.040727 378.722748
L298.852364 380.862753L299.258182 381.179076L300.069818 380.052222
L300.475636 379.146207L300.881455 374.292058L301.287273 311.717376
L301.693091 62.022857L302.098909 183.247982L302.504727 363.696307
L302.910545 379.115893L303.316364 381.615667L303.722182 382.136733
L304.939636 382.418842L305.751273 382.072057L306.157091 382.793669
L306.562909 382.451032L306.968727 382.502773L307.374545 382.373025
L307.780364 382.580336L308.186182 382.480753L308.592000 382.858198
L308.997818 382.452908L309.403636 382.694779L310.215273 382.426889
L310.621091 382.808037L311.026909 382.676116L311.432727 382.396773
L311.838545 382.716897L312.244364 382.596826L312.650182 382.664267
L313.056000 382.476359L313.461818 382.728400L313.867636 382.730573
L314.273455 382.592827L314.679273 382.956003L315.085091 382.559402
L315.490909 382.690533L315.896727 382.594653L316.302545 382.224812
L316.708364 382.773625L317.114182 382.226935L317.520000 382.776538
L317.925818 382.461350L318.331636 382.785819L319.549091 382.389169
L319.954909 382.627584L320.360727 382.418447L320.766545 382.765676
L321.172364 382.332837L321.578182 382.725241L322.389818 382.510031
L322.795636 382.735757L323.201455 382.461992L323.607273 382.432073
L324.013091 382.578064L324.418909 382.519016L324.824727 382.638643
L325.230545 382.332886L326.042182 382.368976L326.448000 383.072519
L326.853818 382.478285L327.259636 382.519707L327.665455 382.418249
L328.071273 382.598652L328.477091 382.633410L328.882909 382.319111
L329.288727 382.772588L329.694545 382.152236L330.100364 382.461252
L330.506182 382.333429L330.912000 382.714873L331.317818 382.229008
L331.723636 382.217307L332.129455 382.508994L333.346909 382.319210
L333.752727 382.121428L334.564364 382.393810L334.970182 382.278528
L335.376000 382.015378L335.781818 382.597665L337.405091 382.219085
L337.810909 382.128834L338.216727 382.280305L338.622545 382.697198
L339.028364 382.170503L339.434182 382.417755L339.840000 382.325628
L340.651636 382.458882L341.463273 382.082030L341.869091 382.501391
L342.274909 382.175638L342.680727 382.459573L343.492364 382.037151
L344.304000 382.141720L344.709818 382.296302L345.115636 382.327702
L345.521455 382.077241L345.927273 382.386405L346.333091 382.218048
L346.738909 381.921227L347.144727 382.238438L347.550545 382.312051
L347.956364 381.997061L348.362182 382.277047L348.768000 381.930805
L349.173818 382.169713L349.579636 381.736282L349.985455 382.290278
L351.608727 381.838135L352.014545 381.821052L352.826182 382.206594
L353.232000 382.178896L353.637818 382.458635L354.043636 381.985953
L354.449455 381.911205L355.261091 382.185562L355.666909 381.731888
L356.072727 382.117577L356.478545 381.616803L356.884364 381.797354
L357.696000 381.687009L358.101818 381.978350L358.913455 382.188178
L359.319273 382.074575L359.725091 381.323833L360.130909 381.870325
L360.536727 381.972129L360.942545 381.543634L361.348364 381.827866
L361.754182 381.793602L362.160000 381.396359L362.565818 381.848305
L362.971636 381.441781L363.783273 382.188376L364.189091 381.622826
L365.000727 381.956379L365.406545 382.019871L365.812364 381.810931
L366.624000 381.942950L367.029818 381.734011L368.247273 381.772570
L368.653091 381.953911L369.870545 381.584859L370.276364 381.595524
L371.088000 381.354739L371.493818 381.503002L371.899636 381.351678
L372.305455 380.986725L373.522909 381.623962L373.928727 381.282311
L374.334545 381.598288L375.552000 381.404407L375.957818 381.587377
L376.363636 381.559877L377.175273 381.187321L377.581091 381.611668
L377.986909 381.581798L378.798545 381.221486L379.204364 381.504976
L380.421818 381.274214L380.827636 380.609280L381.233455 381.174533
L381.639273 381.071495L382.045091 381.438473L382.450909 380.932317
L383.262545 381.429636L383.668364 381.366835L384.074182 381.130445
L384.480000 381.238667L384.885818 381.216055L385.697455 381.405542
L386.914909 380.717749L387.320727 380.426902L387.726545 380.803359
L388.132364 380.548603L388.538182 380.855446L388.944000 380.900769
L389.349818 380.645222L389.755636 381.090503L390.161455 380.925850
L390.567273 380.637767L390.973091 380.634706L391.378909 380.508809
L392.190545 380.550874L392.596364 380.712565L393.002182 380.319470
L393.408000 380.885316L393.813818 380.582521L394.219636 380.421372
L394.625455 380.825724L395.031273 380.706394L395.437091 380.390663
L395.842909 380.449514L396.248727 380.642458L396.654545 380.550676
L397.060364 380.801631L397.466182 380.637669L397.872000 381.115732
L398.277818 380.529545L398.683636 380.736411L399.089455 381.297567
L399.495273 380.950338L399.901091 381.135678L400.306909 380.482741
L400.712727 380.564451L401.118545 381.161598L401.930182 378.514154
L402.336000 366.995158L402.741818 366.144784L403.147636 379.701833
L403.553455 381.350444L403.959273 380.932219L404.770909 381.189049
L405.176727 381.027209L405.582545 381.387275L405.988364 381.176854
L406.394182 381.349654L406.800000 380.875145L407.205818 381.428204
L407.611636 381.055795L408.423273 381.251652L409.234909 380.792547
L409.640727 381.440349L410.046545 380.860926L410.452364 381.067743
L410.858182 380.706739L411.264000 380.910693L411.669818 380.530977
L412.075636 381.058659L412.481455 380.980158L412.887273 380.413424
L413.293091 380.698790L413.698909 380.674549L414.104727 380.905114
L414.916364 380.583409L415.322182 380.833179L415.728000 380.882304
L416.133818 380.571758L416.539636 380.590519L416.945455 380.899633
L417.351273 380.641766L417.757091 380.821577L418.974545 380.775563
L419.786182 380.715034L420.597818 380.673562L421.003636 380.954929
L421.409455 380.639298L421.815273 380.495775L422.221091 380.490789
L422.626909 380.195449L423.844364 380.418657L424.250182 380.453414
L424.656000 380.128699L425.061818 379.996235L425.467636 380.370125
L425.873455 380.076414L426.279273 380.280368L426.685091 380.085647
L427.496727 380.468028L427.902545 380.278837L428.714182 380.286835
L429.120000 380.026747L429.525818 380.388837L429.931636 380.304461
L430.337455 379.961971L431.149091 379.896357L431.554909 380.306288
L431.960727 380.361732L432.366545 379.426242L432.772364 379.884902
L433.178182 379.811438L433.584000 380.019983L433.989818 379.646587
L434.395636 379.894925L434.801455 379.479316L435.613091 379.392719
L436.018909 379.556582L436.424727 379.897640L436.830545 379.540537
L437.236364 379.359541L437.642182 379.469738L438.048000 379.862587
L438.453818 379.460308L439.265455 379.578701L439.671273 378.935194
L440.888727 379.297679L441.294545 379.188123L441.700364 379.775397
L442.106182 379.047464L442.512000 379.291655L442.917818 379.181705
L443.323636 379.408863L443.729455 379.273635L444.135273 378.519733
L444.541091 378.432494L444.946909 378.137993L445.352727 377.527910
L445.758545 377.339657L446.164364 377.405074L446.570182 376.998994
L446.976000 377.823152L447.381818 377.688565L447.787636 377.860921
L448.193455 378.212248L448.599273 378.725118L449.005091 378.848053
L449.410909 379.602399L450.222545 380.071181L451.845818 382.410053
L452.251636 382.497885L452.657455 382.819787L453.469091 381.666668
L453.874909 380.636879L454.280727 377.841666L454.686545 367.820500
L455.092364 344.535404L455.498182 342.375651L455.904000 365.482220
L456.309818 376.781809L456.715636 380.102087L457.121455 381.189296
L457.933091 382.430691L458.338909 382.583594L458.744727 382.431876
L459.556364 382.860123L460.368000 382.805815L460.773818 383.133493
L461.585455 383.173731L461.991273 383.385929L462.397091 383.250849
L462.802909 383.461517L463.614545 383.344358L464.020364 383.331226
L464.426182 383.071631L464.832000 382.976443L465.237818 382.575448
L466.455273 381.792269L466.861091 381.339977L467.266909 381.368218
L467.672727 381.892838L468.078545 381.781506L468.484364 382.129426
L468.890182 382.933045L469.296000 383.319228L469.701818 383.364255
L470.107636 384.029826L470.919273 384.626510L471.325091 384.895298
L471.730909 385.869297L472.136727 386.485206L472.542545 386.611720
L472.948364 387.070134L473.760000 386.881964L474.165818 387.051531
L474.977455 386.511318L475.383273 379.518418L475.789091 339.353033
L476.194909 334.987611L476.600727 379.798502L477.006545 386.633873
L477.412364 386.970132L477.818182 386.707851L478.224000 387.057040
L483.905455 387.141920L484.311273 386.996793L484.717091 386.998777
L485.122909 387.152130L485.934545 386.975336L486.340364 387.119357
L486.746182 387.008676L487.152000 387.104240L487.557818 386.898005
L488.369455 387.019898L488.775273 386.977597L489.181091 386.809117
L489.992727 387.028030L490.398545 387.099762L490.804364 386.916287
L491.210182 387.116321L494.456727 387.026766L494.862545 386.815560
L495.674182 386.924286L496.080000 386.699265L496.485818 386.680741
L496.891636 386.541618L497.703273 386.657384L498.920727 386.622740
L500.949818 387.289965L501.355636 387.027067L501.761455 387.190398
L502.573091 387.294868L502.978909 387.488078L503.384727 387.434683
L503.790545 387.519749L504.196364 387.266548L504.602182 387.317865
L505.008000 387.086061L505.413818 387.200484L505.819636 386.811724
L506.225455 386.584635L506.631273 385.604558L507.442909 381.058560
L507.848727 380.114134L508.660364 387.205189L509.066182 388.106159
L509.472000 388.345117L511.095273 388.532322L511.501091 387.919199
L511.906909 386.925041L512.312727 386.858923L513.124364 387.043740
L513.530182 387.339040L513.936000 388.041526L514.341818 387.394692
L514.747636 387.131986L515.153455 387.068534L515.559273 387.672875
L515.965091 388.503797L516.370909 388.725794L517.588364 388.743257
L519.617455 388.773385L522.458182 388.756814L522.458182 388.756814"/>
</g>
<g id="line2d2">
<path style="fill: none; stroke: #0000ff; stroke-width: 1.000000; stroke-linejoin: round; stroke-linecap: square;  opacity: 1.000000" clip-path="url(#p50431ccdcb28178602d99d9270004dde)" d="M-1.000000 316.796694L-0.641455 317.560485L-0.235636 316.145499
L0.170182 317.062327L0.576000 315.786075L0.981818 317.312640
L1.387636 316.445678L1.793455 316.986295L2.199273 316.520722
L2.605091 317.636023L3.010909 317.091456L3.822545 317.528393
L4.228364 316.562688L4.634182 316.774491L5.040000 317.526418
L5.445818 316.649582L5.851636 317.713536L6.257455 316.979877
L6.663273 317.196617L7.069091 317.940645L7.474909 316.759186
L7.880727 316.798190L8.286545 316.968027L8.692364 317.001600
L9.098182 316.188946L9.504000 317.257344L9.909818 317.275611
L10.315636 316.192402L10.721455 316.691547L11.127273 316.981851
L11.533091 316.907301L11.938909 317.250432L12.344727 316.070949
L12.750545 315.970231L13.156364 316.465920L13.562182 316.174629
L14.373818 317.373367L15.185455 316.341998L15.591273 317.878437
L15.997091 317.379785L16.402909 317.536786L16.808727 316.144512
L17.214545 316.929518L17.620364 315.768795L18.026182 316.693522
L18.432000 316.473819L18.837818 315.169426L19.243636 315.598464
L19.649455 315.116599L20.055273 315.359013L20.461091 315.879881
L20.866909 314.660901L21.272727 316.460983L22.084364 315.581184
L22.490182 316.521216L22.896000 315.554523L23.707636 317.051465
L24.113455 317.209454L24.519273 316.695497L24.925091 318.140599
L25.736727 320.318866L26.142545 319.175424L26.548364 321.238656
L26.954182 321.066843L27.360000 321.363566L27.765818 322.147584
L28.171636 322.328777L28.577455 323.067374L28.983273 322.909879
L29.389091 324.155520L29.794909 323.997038L30.200727 324.069614
L30.606545 324.780069L31.012364 324.088375L31.418182 324.219209
L31.824000 323.830656L32.229818 323.803995L32.635636 324.270062
L33.041455 323.795109L33.447273 322.846683L33.853091 322.778551
L35.070545 323.969390L35.476364 322.985911L35.882182 324.423607
L36.288000 323.578368L37.099636 323.393719L37.505455 323.591698
L37.911273 322.470967L38.317091 323.505298L38.722909 322.467511
L39.534545 323.247086L39.940364 322.861989L40.346182 323.336942
L40.752000 323.177472L41.157818 323.802021L41.969455 322.232009
L42.375273 322.724242L42.781091 321.699785L43.186909 324.148114
L43.592727 322.319397L43.998545 323.126619L44.404364 322.723749
L44.810182 322.077477L45.216000 323.014546L45.621818 321.956517
L46.027636 322.586990L46.433455 322.294217L46.839273 322.280393
L47.245091 322.816567L47.650909 321.625234L48.056727 322.171776
L48.462545 322.247314L48.868364 323.218944L49.274182 321.857280
L49.680000 322.382098L50.085818 321.174473L50.491636 321.164105
L50.897455 322.319890L51.303273 321.802478L51.709091 322.669934
L52.114909 321.918501L52.520727 322.210779L52.926545 321.394670
L53.332364 321.623753L54.144000 322.511945L54.549818 320.795301
L54.955636 321.951579L55.767273 321.564014L56.173091 322.159433
L56.578909 322.290267L56.984727 321.338880L57.390545 321.533403
L57.796364 321.375909L58.202182 320.881207L58.608000 321.246555
L59.013818 320.171739L59.419636 321.252974L59.825455 320.680265
L60.231273 320.938971L61.042909 320.419090L61.448727 319.805897
L61.854545 320.639287L62.260364 320.203831L62.666182 320.322816
L63.072000 321.073755L63.477818 321.514642L63.883636 321.179410
L64.289455 321.671150L64.695273 321.102885L65.101091 321.141394
L65.506909 320.580535L65.912727 322.252251L66.318545 320.684709
L66.724364 320.649161L67.130182 321.567963L67.536000 320.435383
L67.941818 320.654592L68.347636 320.523758L68.753455 320.646199
L69.159273 319.083099L69.565091 319.033234L69.970909 319.513618
L70.376727 319.732827L70.782545 319.519049L71.188364 320.254190
L71.594182 319.298853L72.000000 320.006839L72.405818 320.056210
L72.811636 319.821696L73.217455 320.730624L73.623273 321.254455
L74.029091 322.219173L74.840727 320.694089L75.246545 320.504997
L76.058182 322.524288L76.869818 321.473170L77.275636 321.357641
L77.681455 320.834798L78.087273 320.869851L78.493091 321.108315
L78.898909 322.077970L79.304727 321.277166L79.710545 321.363072
L80.116364 321.803959L80.522182 321.605979L80.928000 321.258898
L81.333818 320.535607L81.739636 320.143104L82.145455 320.742473
L82.551273 319.871067L82.957091 319.464247L83.362909 317.535799
L83.768727 319.401545L84.174545 319.277129L84.580364 319.922907
L84.986182 319.747639L85.392000 320.912805L85.797818 319.737271
L86.203636 320.120887L86.609455 320.823936L87.826909 320.730130
L88.232727 320.926135L88.638545 320.160878L89.044364 320.742473
L89.450182 320.686190L89.856000 321.110290L90.261818 319.901678
L90.667636 319.567433L91.073455 319.418331L91.479273 320.568686
L91.885091 320.299611L92.290909 318.652581L92.696727 319.813797
L93.102545 320.118912L93.508364 319.806885L93.914182 318.909312
L94.320000 318.658011L94.725818 318.706395L95.131636 319.571877
L96.349091 318.494098L96.754909 318.895982L97.566545 317.693294
L97.972364 318.262546L98.378182 317.822647L99.189818 317.706130
L99.595636 318.322779L100.001455 318.548901L100.407273 317.076645
L100.813091 317.426688L101.218909 317.314615L101.624727 317.007525
L102.436364 316.134638L102.842182 316.278802L103.248000 317.659721
L103.653818 315.978130L104.059636 315.894693L104.871273 315.420233
L105.277091 315.404928L105.682909 313.773202L106.088727 315.112649
L106.494545 314.107447L107.306182 315.706587L107.712000 315.278043
L108.117818 315.315072L108.929455 314.608567L109.335273 313.889719
L109.741091 313.530789L110.146909 312.107904L110.552727 311.888201
L110.958545 312.844032L111.364364 309.887671L111.770182 311.480393
L112.176000 309.855579L112.581818 310.829678L112.987636 310.515675
L113.393455 311.808713L113.799273 312.107904L114.205091 311.210825
L114.610909 311.044937L115.016727 311.743543L115.422545 313.433033
L115.828364 313.069166L116.234182 313.376750L116.640000 312.103954
L117.045818 312.064457L117.451636 311.197989L117.857455 313.250359
L118.263273 313.395017L120.698182 299.791214L121.104000 300.264686
L121.915636 305.816997L122.321455 306.921929L122.727273 307.163355
L123.133091 309.713883L123.538909 311.122450L123.944727 314.335543
L124.350545 314.838638L124.756364 317.049490L125.162182 317.572334
L125.568000 319.513618L125.973818 319.144814L126.379636 321.625234
L126.785455 321.215451L127.191273 322.301623L127.597091 321.767918
L128.002909 322.000951L128.408727 321.438117L128.814545 322.680302
L129.220364 322.253733L129.626182 320.975506L130.437818 322.202386
L130.843636 322.363831L131.249455 321.162624L131.655273 321.416393
L132.061091 321.467739L132.466909 322.125367L132.872727 322.312978
L133.278545 322.314953L134.090182 321.034752L134.496000 321.423305
L134.901818 322.035511L135.307636 321.536366L135.713455 321.304814
L136.119273 320.532645L136.525091 322.113024L136.930909 320.626450
L137.336727 320.386999L137.742545 320.706432L138.148364 320.594853
L138.554182 320.784933L138.960000 321.251493L139.771636 320.908361
L140.177455 320.463031L140.989091 320.552393L141.394909 319.993509
L141.800727 321.391707L142.206545 320.350958L142.612364 319.948581
L143.018182 320.310967L143.424000 320.091264L143.829818 321.223845
L144.235636 320.390455L144.641455 320.129774L145.047273 319.596069
L145.453091 319.943150L145.858909 319.865143L146.264727 319.061870
L146.670545 319.344768L147.076364 319.942162L147.482182 319.215415
L148.293818 319.572864L148.699636 320.714331L149.105455 318.583954
L149.511273 320.903424L149.917091 320.663973L150.322909 318.522240
L150.728727 319.581257L151.540364 319.152713L151.946182 319.726903
L152.352000 318.997687L152.757818 319.158638L153.163636 318.336110
L153.569455 319.649883L153.975273 318.453120L154.381091 317.611337
L154.786909 318.195895L155.192727 318.541001L155.598545 318.555813
L156.004364 317.893248L156.410182 319.031753L156.816000 317.567890
L157.221818 318.109989L157.627636 319.592613L158.033455 317.530368
L158.439273 317.650341L158.845091 317.533330L159.250909 318.259090
L159.656727 317.611831L160.062545 318.150967L160.468364 318.062592
L160.874182 316.229925L161.280000 318.012727L161.685818 318.055680
L162.091636 317.502720L162.497455 318.079872L162.903273 317.864613
L163.309091 317.853257L163.714909 318.029019L164.120727 317.351643
L164.526545 317.261294L164.932364 316.748818L165.338182 317.858688
L165.744000 318.243291L166.149818 317.627136L166.555636 317.397065
L166.961455 317.472110L167.367273 317.077138L167.773091 315.690295
L168.178909 317.636023L168.584727 317.569865L168.990545 316.993207
L169.396364 317.224265L169.802182 316.535534L170.208000 315.614263
L170.613818 318.335616L171.425455 316.405687L171.831273 316.917669
L172.237091 315.754478L172.642909 317.070720L173.048727 316.296576
L173.454545 316.417042L173.860364 315.869513L174.266182 317.183287
L174.672000 315.118574L175.077818 316.413093L175.483636 315.560448
L175.889455 315.904567L176.295273 316.461970L176.701091 315.059328
L177.512727 317.180325L177.918545 315.552549L178.324364 316.116370
L178.730182 315.519470L179.136000 315.605376L179.947636 314.537966
L180.353455 315.020325L181.165091 315.346670L181.570909 315.136347
L181.976727 313.581641L182.382545 314.564133L182.788364 314.742363
L183.194182 315.630555L183.600000 314.621403L184.005818 314.569070
L184.411636 314.130158L184.817455 314.613504L185.223273 315.525394
L185.629091 314.623378L186.034909 314.242725L186.440727 315.371355
L186.846545 313.830473L187.252364 315.183250L187.658182 315.022299
L188.875636 313.782583L189.281455 314.963054L190.093091 314.250130
L190.498909 315.155109L190.904727 313.918354L191.310545 313.964763
L191.716364 314.822345L192.122182 313.482405L192.528000 312.985728
L192.933818 313.553006L193.339636 313.239991L193.745455 314.366647
L194.151273 312.853413L194.557091 312.884517L194.962909 313.359963
L195.368727 313.457225L195.774545 313.761353L196.586182 312.492014
L196.992000 313.483886L197.397818 313.267639L198.209455 313.571767
L198.615273 311.825006L199.021091 312.266386L199.426909 312.401170
L199.832727 312.001755L200.238545 312.980297L201.050182 312.139008
L201.456000 312.498926L201.861818 311.253778L202.267636 313.004489
L202.673455 311.951397L203.079273 312.092105L203.485091 313.012882
L203.890909 311.709477L204.296727 311.794889L204.702545 313.058304
L205.108364 313.477961L205.514182 312.698880L205.920000 311.024695
L206.325818 311.108133L206.731636 310.997541L207.137455 311.086409
L207.543273 312.305883L208.354909 312.379941L208.760727 310.601088
L209.166545 311.609253L209.572364 311.545070L209.978182 311.715401
L210.384000 311.686766L210.789818 312.178999L211.195636 311.183177
L211.601455 311.363877L212.007273 311.323392L212.413091 310.599607
L212.818909 311.560869L213.224727 311.151086L213.630545 312.576933
L214.036364 310.723529L214.442182 310.311278L214.848000 309.670437
L215.253818 310.781294L215.659636 310.250551L216.471273 311.344128
L216.877091 309.777573L217.282909 311.316480L218.094545 310.357193
L218.500364 310.593682L219.312000 309.681792L219.717818 310.002213
L220.123636 309.073536L220.529455 310.465317L221.341091 310.490990
L222.152727 308.821248L222.558545 308.604507L222.964364 310.205623
L223.370182 310.769938L223.776000 308.748178L224.181818 310.384841
L224.587636 308.650917L224.993455 311.142693L225.399273 308.653385
L226.210909 310.579365L226.616727 310.108855L227.022545 310.015049
L227.428364 309.645257L227.834182 308.977755L228.240000 309.760293
L228.645818 310.095031L229.051636 309.753874L229.457455 311.118994
L229.863273 309.990857L230.269091 309.986414L230.674909 309.455671
L231.080727 309.882734L231.486545 309.301632L231.892364 309.823488
L232.298182 309.057243L232.704000 309.133769L233.109818 310.193280
L233.515636 309.620571L233.921455 308.640055L234.327273 309.586505
L234.733091 308.272238L235.138909 309.443822L235.544727 309.189559
L235.950545 309.261147L236.356364 309.662537L236.762182 308.876050
L237.168000 308.359131L237.979636 307.915282L238.385455 308.206574
L238.791273 307.234450L239.197091 307.995264L239.602909 308.465774
L240.414545 307.918245L240.820364 308.313710L241.226182 305.700480
L241.632000 308.440594L242.037818 308.556123L242.443636 308.856795
L242.849455 308.465280L243.255273 306.870089L243.661091 308.360613
L244.066909 306.653842L244.472727 306.833061L244.878545 308.002176
L245.284364 307.529198L246.096000 306.107301L246.501818 306.170002
L247.313455 307.148544L247.719273 306.843429L248.125091 306.369463
L248.530909 306.452407L248.936727 306.992037L249.342545 307.269998
L249.748364 306.213449L250.560000 305.841189L250.965818 306.498816
L251.371636 306.877495L251.777455 306.831086L252.183273 306.044105
L252.589091 304.907081L252.994909 306.193207L253.400727 306.150747
L253.806545 306.393655L254.212364 305.534592L254.618182 305.786880
L255.024000 306.864165L255.429818 305.082843L255.835636 305.183561
L256.241455 306.314167L256.647273 305.013230L257.053091 305.236882
L257.458909 305.154926L257.864727 306.129518L258.270545 305.241819
L258.676364 305.304521L259.082182 305.694555L259.488000 304.870546
L259.893818 305.714798L260.299636 305.606181L260.705455 306.154203
L261.111273 303.696987L261.517091 305.188498L261.922909 304.801426
L262.328727 305.740471L262.734545 304.667630L263.140364 304.984101
L263.546182 304.098871L264.357818 305.789842L264.763636 304.284014
L265.169455 304.179346L265.575273 305.185536L265.981091 305.332663
L266.386909 304.298825L266.792727 303.857938L267.198545 304.281051
L267.604364 303.217097L268.010182 302.928768L268.416000 305.267986
L268.821818 302.240037L269.227636 303.249682L269.633455 303.087744
L270.039273 302.378277L270.445091 302.823607L270.850909 302.006510
L271.256727 302.871991L271.662545 302.663150L272.068364 301.304448
L272.474182 301.358757L272.880000 303.532087L273.285818 303.463461
L273.691636 304.366958L274.097455 303.045285L274.503273 303.535543
L274.909091 303.484690L275.314909 302.837925L275.720727 303.724142
L276.126545 303.185006L276.532364 303.596763L276.938182 302.423205
L277.344000 303.052690L277.749818 302.971721L278.155636 304.201070
L278.561455 303.005294L279.373091 302.070199L279.778909 302.490843
L280.184727 301.608576L280.590545 301.942327L280.996364 302.974190
L281.402182 302.338779L281.808000 302.186222L282.213818 302.827063
L282.619636 301.947758L283.025455 302.057856L283.431273 301.688558
L283.837091 302.449865L284.242909 300.834432L285.054545 303.003813
L285.866182 301.653504L286.272000 302.486400L286.677818 301.560192
L287.083636 302.302738L287.489455 302.270153L287.895273 301.600183
L288.301091 301.852471L288.706909 299.422409L289.112727 299.141486
L289.518545 300.320475L289.924364 300.454272L290.736000 299.968457
L291.141818 298.979054L291.547636 298.950912L291.953455 300.551534
L292.765091 298.262181L293.170909 297.752174L293.576727 298.830939
L293.982545 300.870967L294.388364 301.935415L294.794182 301.963063
L295.200000 303.277824L295.605818 303.774994L296.011636 303.806098
L296.417455 304.779209L296.823273 303.841646L297.229091 303.827328
L297.634909 306.032750L298.040727 306.020901L298.446545 307.396389
L298.852364 307.435886L299.258182 308.874569L299.664000 307.668919
L300.069818 309.199433L300.475636 307.491675L300.881455 306.445001
L301.287273 299.484123L302.098909 193.231378L302.504727 254.944183
L302.910545 283.164398L303.316364 292.977957L303.722182 308.408997
L304.128000 311.018770L304.533818 310.293010L304.939636 312.145426
L305.345455 309.994807L305.751273 310.724023L306.157091 308.580315
L306.562909 308.676590L306.968727 306.974263L307.374545 305.781943
L307.780364 306.103845L308.186182 308.734354L308.997818 312.663333
L309.403636 312.527561L309.809455 313.189138L310.215273 312.935369
L310.621091 314.246181L311.026909 314.928987L311.432727 314.918126
L311.838545 314.155337L312.650182 313.938103L313.056000 313.938597
L313.461818 314.318757L313.867636 313.653723L315.085091 314.114359
L315.490909 315.696713L315.896727 313.944027L316.302545 314.060050
L316.708364 313.946496L317.114182 313.572754L317.520000 314.345417
L317.925818 314.155831L318.737455 313.142235L319.143273 314.096585
L319.549091 313.879351L319.954909 313.827511L320.766545 314.989714
L321.172364 314.880603L321.578182 314.250624L321.984000 314.601161
L322.389818 313.742098L322.795636 314.179529L323.201455 313.604352
L323.607273 314.042277L324.013091 313.606821L324.418909 313.440933
L324.824727 314.237787L325.230545 313.698158L325.636364 314.498469
L326.042182 314.136576L326.448000 314.370597L327.259636 314.353317
L327.665455 315.903086L328.071273 315.277056L328.477091 314.413056
L328.882909 315.006994L329.288727 311.196507L329.694545 310.706743
L330.100364 312.456466L330.506182 313.036087L330.912000 313.905518
L331.317818 313.047442L331.723636 305.822921L332.129455 303.798199
L332.535273 312.193810L332.941091 314.722121L333.346909 316.374583
L333.752727 316.630821L334.158545 318.089253L334.564364 318.318336
L334.970182 317.690331L335.376000 318.561243L335.781818 319.118647
L336.187636 317.564928L336.593455 317.504201L336.999273 317.913984
L337.405091 318.091721L337.810909 316.892983L338.216727 317.534811
L338.622545 318.464475L339.028364 317.537280L339.434182 317.359543
L339.840000 317.955456L340.245818 316.924581L340.651636 318.623451
L341.057455 318.004827L341.463273 316.656000L341.869091 317.628617
L342.274909 316.629339L342.680727 317.692306L343.086545 317.177856
L343.492364 317.358062L344.304000 318.206263L344.709818 317.491858
L345.115636 317.863625L345.521455 315.835447L345.927273 317.592576
L346.333091 318.404242L346.738909 316.826825L347.144727 318.386962
L347.550545 316.610578L347.956364 317.626642L348.362182 317.603931
L349.173818 316.891995L349.579636 318.072466L349.985455 317.191680
L350.391273 316.950254L350.797091 317.019867L351.202909 318.049262
L351.608727 318.231936L352.014545 317.635529L352.420364 317.690331
L352.826182 317.119104L353.232000 317.384722L353.637818 316.634770
L354.449455 318.139118L354.855273 316.982345L355.261091 317.170450
L355.666909 316.919643L356.072727 317.297335L356.478545 316.471351
L356.884364 317.392622L357.290182 317.626149L357.696000 318.095671
L358.101818 317.872512L358.913455 317.952987L359.319273 318.243291
L360.130909 317.708599L360.536727 318.000878L360.942545 318.644681
L361.348364 317.656265L361.754182 319.237138L362.160000 318.154423
L362.565818 317.902629L362.971636 319.118153L363.377455 319.020398
L364.189091 317.555547L364.594909 318.635794L365.000727 317.979648
L365.406545 319.256393L365.812364 319.298853L366.624000 318.042350
L367.029818 318.323273L367.435636 318.007790L367.841455 318.983863
L368.247273 318.656037L368.653091 318.472375L369.058909 318.985838
L369.464727 319.084087L369.870545 319.797998L370.276364 319.285522
L370.682182 319.462272L371.493818 320.166802L371.899636 319.698761
L372.305455 320.708901L372.711273 319.305765L373.117091 319.605943
L373.522909 320.587941L373.928727 320.490679L374.740364 321.074249
L375.146182 319.982647L375.552000 320.897006L375.957818 321.478601
L376.363636 321.714597L376.769455 322.118455L377.175273 321.824695
L377.581091 323.133038L377.986909 322.590939L378.392727 322.330258
L378.798545 323.209070L379.204364 321.850368L379.610182 322.532187
L380.016000 323.722533L380.421818 323.429760L380.827636 323.537883
L381.233455 322.612169L381.639273 322.295205L382.045091 321.506743
L382.450909 319.913527L383.262545 315.565879L383.668364 313.558437
L384.074182 316.718702L384.885818 325.028901L385.291636 328.908507
L386.103273 330.137362L386.509091 331.294135L387.320727 331.675776
L387.726545 331.246738L388.944000 327.263451L389.755636 319.593600
L390.161455 314.333074L390.567273 312.410057L390.973091 315.507621
L391.784727 331.421513L393.002182 339.197019L393.408000 340.351274
L393.813818 342.147012L394.219636 342.964158L394.625455 342.585430
L395.437091 344.016115L395.842909 345.549691L396.248727 345.391109
L397.060364 346.191963L397.466182 345.818765L397.872000 346.511940
L398.277818 346.317515L398.683636 346.659215L399.089455 345.127910
L399.495273 345.166223L399.901091 345.469215L400.306909 343.690313
L400.712727 344.310616L401.118545 343.870914L401.524364 342.913306
L401.930182 338.963986L402.336000 326.898103L402.741818 266.298624
L403.147636 319.357605L403.553455 349.496146L403.959273 351.936477
L404.770909 351.843116L405.176727 350.789431L405.582545 351.393540
L405.988364 351.010565L406.394182 350.964601L406.800000 351.549158
L407.611636 351.934749L408.017455 351.419410L408.423273 351.589643
L408.829091 351.164555L409.234909 351.571326L409.640727 351.793744
L410.046545 351.492826L410.452364 351.733264L410.858182 351.332072
L411.264000 351.729117L411.669818 351.019946L412.075636 351.484037
L412.887273 350.481551L413.293091 352.114066L413.698909 351.600406
L414.104727 351.859803L414.510545 351.384949L414.916364 351.749656
L415.322182 352.607484L415.728000 351.597937L416.133818 352.001203
L416.539636 351.184155L416.945455 351.479150L417.351273 351.431506
L417.757091 351.146041L418.162909 351.346736L418.568727 350.973586
L418.974545 351.195313L419.380364 350.751267L419.786182 351.351722
L420.192000 350.974129L420.597818 351.639508L421.409455 351.197584
L421.815273 352.159834L422.221091 351.076131L422.626909 350.863044
L423.032727 350.860723L423.438545 351.491789L423.844364 351.362386
L424.250182 351.632547L424.656000 349.955597L425.061818 350.086283
L425.467636 351.748372L425.873455 351.521264L426.279273 351.881379
L426.685091 351.168998L427.496727 351.515388L427.902545 351.494949
L428.308364 351.361893L429.120000 351.578781L430.337455 351.437085
L431.149091 351.885970L431.554909 352.161068L432.366545 350.896419
L432.772364 352.178496L433.178182 351.235354L433.584000 351.408795
L433.989818 351.993057L434.395636 350.393373L434.801455 352.022581
L435.613091 351.407166L436.018909 351.815665L436.424727 351.172059
L436.830545 352.116782L437.236364 352.043959L437.642182 351.054901
L438.048000 351.589791L438.453818 351.203855L438.859636 352.084493
L439.265455 351.155619L439.671273 351.604208L440.077091 350.773385
L440.482909 351.252337L440.888727 351.955732L441.294545 351.591519
L441.700364 351.842474L442.512000 351.399612L442.917818 351.574535
L443.323636 352.464208L443.729455 350.691379L444.541091 351.340613
L444.946909 351.021723L445.352727 351.607664L446.164364 351.136265
L446.570182 351.699692L446.976000 351.481618L447.381818 351.897178
L448.193455 351.122935L448.599273 352.415429L449.005091 352.064794
L449.410909 352.319797L450.222545 351.532668L450.628364 351.784907
L451.034182 352.264353L451.440000 352.463320L451.845818 351.949413
L452.657455 352.689885L453.063273 351.824305L453.469091 353.440578
L453.874909 352.622641L454.280727 352.157217L454.686545 350.116054
L455.092364 347.002099L455.498182 341.435076L455.904000 343.710259
L456.309818 349.414535L457.121455 352.965921L457.527273 353.224923
L457.933091 353.112801L458.338909 353.353190L458.744727 353.067824
L459.150545 353.381184L459.962182 354.456296L460.773818 354.246468
L461.179636 353.169381L461.585455 354.245480L461.991273 354.604559
L462.397091 354.245085L463.208727 354.654769L463.614545 354.487252
L464.020364 354.047797L464.426182 354.283397L464.832000 354.367675
L465.643636 355.094669L466.049455 354.344667L466.455273 355.648221
L467.266909 355.007133L467.672727 355.238340L468.078545 354.647907
L468.890182 355.963458L469.296000 356.208389L469.701818 356.641377
L470.107636 356.788208L470.513455 356.258304L470.919273 357.518855
L471.325091 357.269036L471.730909 357.451266L472.136727 358.610655
L472.542545 357.620116L472.948364 358.377523L473.354182 357.410831
L473.760000 357.337317L474.571636 356.797243L474.977455 356.776358
L475.383273 355.686928L475.789091 351.867061L476.194909 342.374614
L476.600727 345.919137L477.006545 355.188968L477.412364 356.999320
L478.629818 358.473403L479.035636 359.753307L479.441455 360.467317
L480.658909 363.389711L481.064727 364.019048L481.470545 365.206777
L481.876364 365.435120L482.282182 366.291763L483.093818 367.540169
L483.499636 367.600945L483.905455 367.780164L484.311273 367.806429
L484.717091 368.231616L485.122909 367.191113L485.934545 366.409168
L486.340364 365.430725L486.746182 363.809022L487.152000 360.879766
L487.557818 344.240015L487.963636 309.333723L488.369455 352.248998
L488.775273 354.065669L489.181091 307.457115L489.586909 336.879031
L489.992727 377.460370L490.398545 380.422903L490.804364 381.424649
L491.210182 381.125458L491.616000 381.594832L492.021818 381.848947
L492.833455 381.656991L493.239273 381.404555L493.645091 382.538962
L494.050909 382.919912L494.862545 382.897794L495.268364 382.773526
L495.674182 382.498675L496.080000 381.930262L496.485818 381.744280
L496.891636 380.587655L497.297455 380.425668L497.703273 381.052290
L498.514909 383.280719L499.326545 384.150441L499.732364 384.251549
L500.138182 384.561843L500.544000 384.565319L500.949818 384.444349
L501.355636 384.640324L502.167273 384.469815L502.573091 383.761004
L502.978909 382.530174L503.790545 384.130776L504.196364 384.761323
L504.602182 384.505490L505.008000 384.859449L505.413818 384.977126
L505.819636 384.853969L506.225455 385.006127L507.037091 384.381845
L507.442909 383.888061L507.848727 383.101846L509.472000 385.309929
L509.877818 385.588058L510.283636 386.078849L510.689455 386.275851
L511.095273 386.109879L511.501091 386.302206L512.718545 385.957149
L513.124364 386.443097L513.530182 386.234912L513.936000 386.419394
L514.341818 386.340202L514.747636 385.650058L515.153455 385.255067
L515.559273 384.062263L515.965091 383.511925L516.370909 382.518424
L516.776727 382.870294L517.182545 382.459227L517.588364 382.218245
L517.994182 383.165535L518.400000 387.322353L518.805818 388.740203
L521.240727 388.753654L522.458182 388.789520L522.458182 388.789520"/>
</g>
<g id="matplotlib.axis1">
<g id="xtick1">
<g id="line2d3">
<defs><path id="m6c1db36b5266faadb5cf818529feee81" d="M0.000000 0.000000L0.000000 -6.000000"/></defs>
<g ><use style="fill: none; stroke: #000000; stroke-width: 2.000000; stroke-linejoin: round; stroke-linecap: butt;  opacity: 1.000000" xlink:href="#m6c1db36b5266faadb5cf818529feee81" x="518.400000" y="388.800000"/>
</g></g>
<g id="line2d4">
<defs><path id="mdd338e0e57396f882d6b666f0598d692" d="M0.000000 0.000000L0.000000 6.000000"/></defs>
<g ><use style="fill: none; stroke: #000000; stroke-width: 2.000000; stroke-linejoin: round; stroke-linecap: butt;  opacity: 1.000000" xlink:href="#mdd338e0e57396f882d6b666f0598d692" x="518.400000" y="43.200000"/>
</g></g>
<g id="text1">
<defs>
<path id="c_7a2040fe3b94fcd41d0a72c84e93b115" d="M31.781250 -66.406250q-7.609375 0.000000 -11.453125 7.500000q-3.828125 7.484375 -3.828125 22.531250q0.000000 14.984375 3.828125 22.484375q3.843750 7.500000 11.453125 7.500000q7.671875 0.000000 11.500000 -7.500000q3.843750 -7.500000 3.843750 -22.484375q0.000000 -15.046875 -3.843750 -22.531250q-3.828125 -7.500000 -11.500000 -7.500000M31.781250 -74.218750q12.265625 0.000000 18.734375 9.703125q6.468750 9.687500 6.468750 28.140625q0.000000 18.406250 -6.468750 28.109375q-6.468750 9.687500 -18.734375 9.687500q-12.250000 0.000000 -18.718750 -9.687500q-6.468750 -9.703125 -6.468750 -28.109375q0.000000 -18.453125 6.468750 -28.140625q6.468750 -9.703125 18.718750 -9.703125"/>
</defs>
<g style="fill: #000000; opacity: 1.000000" transform="translate(515.376562,402.706250)scale(0.120000)">
<use xlink:href="#c_7a2040fe3b94fcd41d0a72c84e93b115"/>
</g>
</g>
</g>
<g id="xtick2">
<g id="line2d5">
<g ><use style="fill: none; stroke: #000000; stroke-width: 2.000000; stroke-linejoin: round; stroke-linecap: butt;  opacity: 1.000000" xlink:href="#m6c1db36b5266faadb5cf818529feee81" x="437.236364" y="388.800000"/>
</g></g>
<g id="line2d6">
<g ><use style="fill: none; stroke: #000000; stroke-width: 2.000000; stroke-linejoin: round; stroke-linecap: butt;  opacity: 1.000000" xlink:href="#mdd338e0e57396f882d6b666f0598d692" x="437.236364" y="43.200000"/>
</g></g>
<g id="text2">
<defs>
<path id="c_ed3f3ed3ebfbd18bcb9c012009a68ad1" d="M19.187500 -8.296875l34.421875 0.000000l0.000000 8.296875l-46.281250 0.000000l0.000000 -8.296875q5.609375 -5.812500 15.296875 -15.593750q9.703125 -9.796875 12.187500 -12.640625q4.734375 -5.312500 6.609375 -9.000000q1.890625 -3.687500 1.890625 -7.250000q0.000000 -5.812500 -4.078125 -9.468750q-4.078125 -3.671875 -10.625000 -3.671875q-4.640625 0.000000 -9.796875 1.609375q-5.140625 1.609375 -11.000000 4.890625l0.000000 -9.968750q5.953125 -2.390625 11.125000 -3.609375q5.187500 -1.218750 9.484375 -1.218750q11.328125 0.000000 18.062500 5.671875q6.734375 5.656250 6.734375 15.125000q0.000000 4.500000 -1.687500 8.531250q-1.671875 4.015625 -6.125000 9.484375q-1.218750 1.421875 -7.765625 8.187500q-6.531250 6.765625 -18.453125 18.921875"/>
</defs>
<g style="fill: #000000; opacity: 1.000000" transform="translate(426.611364,402.706250)scale(0.120000)">
<use xlink:href="#c_ed3f3ed3ebfbd18bcb9c012009a68ad1"/>
<use xlink:href="#c_7a2040fe3b94fcd41d0a72c84e93b115" x="63.623047"/>
<use xlink:href="#c_7a2040fe3b94fcd41d0a72c84e93b115" x="127.246094"/>
</g>
</g>
</g>
<g id="xtick3">
<g id="line2d7">
<g ><use style="fill: none; stroke: #000000; stroke-width: 2.000000; stroke-linejoin: round; stroke-linecap: butt;  opacity: 1.000000" xlink:href="#m6c1db36b5266faadb5cf818529feee81" x="356.072727" y="388.800000"/>
</g></g>
<g id="line2d8">
<g ><use style="fill: none; stroke: #000000; stroke-width: 2.000000; stroke-linejoin: round; stroke-linecap: butt;  opacity: 1.000000" xlink:href="#mdd338e0e57396f882d6b666f0598d692" x="356.072727" y="43.200000"/>
</g></g>
<g id="text3">
<defs>
<path id="c_a0416418d96557a09b8c1332d34883ba" d="M37.796875 -64.312500l-24.906250 38.921875l24.906250 0.000000zM35.203125 -72.906250l12.406250 0.000000l0.000000 47.515625l10.406250 0.000000l0.000000 8.203125l-10.406250 0.000000l0.000000 17.187500l-9.812500 0.000000l0.000000 -17.187500l-32.906250 0.000000l0.000000 -9.515625z"/>
</defs>
<g style="fill: #000000; opacity: 1.000000" transform="translate(345.307102,402.706250)scale(0.120000)">
<use xlink:href="#c_a0416418d96557a09b8c1332d34883ba"/>
<use xlink:href="#c_7a2040fe3b94fcd41d0a72c84e93b115" x="63.623047"/>
<use xlink:href="#c_7a2040fe3b94fcd41d0a72c84e93b115" x="127.246094"/>
</g>
</g>
</g>
<g id="xtick4">
<g id="line2d9">
<g ><use style="fill: none; stroke: #000000; stroke-width: 2.000000; stroke-linejoin: round; stroke-linecap: butt;  opacity: 1.000000" xlink:href="#m6c1db36b5266faadb5cf818529feee81" x="274.909091" y="388.800000"/>
</g></g>
<g id="line2d10">
<g ><use style="fill: none; stroke: #000000; stroke-width: 2.000000; stroke-linejoin: round; stroke-linecap: butt;  opacity: 1.000000" xlink:href="#mdd338e0e57396f882d6b666f0598d692" x="274.909091" y="43.200000"/>
</g></g>
<g id="text4">
<defs>
<path id="c_cc8d6d580d1b10c8632f7a42cd53db8a" d="M33.015625 -40.375000q-6.640625 0.000000 -10.531250 4.546875q-3.875000 4.531250 -3.875000 12.437500q0.000000 7.859375 3.875000 12.437500q3.890625 4.562500 10.531250 4.562500q6.640625 0.000000 10.515625 -4.562500q3.875000 -4.578125 3.875000 -12.437500q0.000000 -7.906250 -3.875000 -12.437500q-3.875000 -4.546875 -10.515625 -4.546875M52.593750 -71.296875l0.000000 8.984375q-3.718750 -1.750000 -7.500000 -2.671875q-3.781250 -0.937500 -7.500000 -0.937500q-9.765625 0.000000 -14.921875 6.593750q-5.140625 6.593750 -5.875000 19.921875q2.875000 -4.250000 7.218750 -6.515625q4.359375 -2.265625 9.578125 -2.265625q10.984375 0.000000 17.359375 6.671875q6.375000 6.656250 6.375000 18.125000q0.000000 11.234375 -6.640625 18.031250q-6.640625 6.781250 -17.671875 6.781250q-12.656250 0.000000 -19.343750 -9.687500q-6.687500 -9.703125 -6.687500 -28.109375q0.000000 -17.281250 8.203125 -27.562500q8.203125 -10.281250 22.015625 -10.281250q3.718750 0.000000 7.500000 0.734375q3.781250 0.734375 7.890625 2.187500"/>
</defs>
<g style="fill: #000000; opacity: 1.000000" transform="translate(264.268466,402.706250)scale(0.120000)">
<use xlink:href="#c_cc8d6d580d1b10c8632f7a42cd53db8a"/>
<use xlink:href="#c_7a2040fe3b94fcd41d0a72c84e93b115" x="63.623047"/>
<use xlink:href="#c_7a2040fe3b94fcd41d0a72c84e93b115" x="127.246094"/>
</g>
</g>
</g>
<g id="xtick5">
<g id="line2d11">
<g ><use style="fill: none; stroke: #000000; stroke-width: 2.000000; stroke-linejoin: round; stroke-linecap: butt;  opacity: 1.000000" xlink:href="#m6c1db36b5266faadb5cf818529feee81" x="193.745455" y="388.800000"/>
</g></g>
<g id="line2d12">
<g ><use style="fill: none; stroke: #000000; stroke-width: 2.000000; stroke-linejoin: round; stroke-linecap: butt;  opacity: 1.000000" xlink:href="#mdd338e0e57396f882d6b666f0598d692" x="193.745455" y="43.200000"/>
</g></g>
<g id="text5">
<defs>
<path id="c_bef35738d52871942e50b9de9b122bab" d="M31.781250 -34.625000q-7.031250 0.000000 -11.062500 3.765625q-4.015625 3.765625 -4.015625 10.343750q0.000000 6.593750 4.015625 10.359375q4.031250 3.765625 11.062500 3.765625q7.031250 0.000000 11.078125 -3.781250q4.062500 -3.796875 4.062500 -10.343750q0.000000 -6.578125 -4.031250 -10.343750q-4.015625 -3.765625 -11.109375 -3.765625M21.921875 -38.812500q-6.343750 -1.562500 -9.890625 -5.906250q-3.531250 -4.359375 -3.531250 -10.609375q0.000000 -8.734375 6.218750 -13.812500q6.234375 -5.078125 17.062500 -5.078125q10.890625 0.000000 17.093750 5.078125q6.203125 5.078125 6.203125 13.812500q0.000000 6.250000 -3.546875 10.609375q-3.531250 4.343750 -9.828125 5.906250q7.125000 1.656250 11.093750 6.500000q3.984375 4.828125 3.984375 11.796875q0.000000 10.609375 -6.468750 16.281250q-6.468750 5.656250 -18.531250 5.656250q-12.046875 0.000000 -18.531250 -5.656250q-6.468750 -5.671875 -6.468750 -16.281250q0.000000 -6.968750 4.000000 -11.796875q4.015625 -4.843750 11.140625 -6.500000M18.312500 -54.390625q0.000000 5.656250 3.531250 8.828125q3.546875 3.171875 9.937500 3.171875q6.359375 0.000000 9.937500 -3.171875q3.593750 -3.171875 3.593750 -8.828125q0.000000 -5.671875 -3.593750 -8.843750q-3.578125 -3.171875 -9.937500 -3.171875q-6.390625 0.000000 -9.937500 3.171875q-3.531250 3.171875 -3.531250 8.843750"/>
</defs>
<g style="fill: #000000; opacity: 1.000000" transform="translate(183.089205,402.706250)scale(0.120000)">
<use xlink:href="#c_bef35738d52871942e50b9de9b122bab"/>
<use xlink:href="#c_7a2040fe3b94fcd41d0a72c84e93b115" x="63.623047"/>
<use xlink:href="#c_7a2040fe3b94fcd41d0a72c84e93b115" x="127.246094"/>
</g>
</g>
</g>
<g id="xtick6">
<g id="line2d13">
<g ><use style="fill: none; stroke: #000000; stroke-width: 2.000000; stroke-linejoin: round; stroke-linecap: butt;  opacity: 1.000000" xlink:href="#m6c1db36b5266faadb5cf818529feee81" x="112.581818" y="388.800000"/>
</g></g>
<g id="line2d14">
<g ><use style="fill: none; stroke: #000000; stroke-width: 2.000000; stroke-linejoin: round; stroke-linecap: butt;  opacity: 1.000000" xlink:href="#mdd338e0e57396f882d6b666f0598d692" x="112.581818" y="43.200000"/>
</g></g>
<g id="text6">
<defs>
<path id="c_42baa63129a918535c52adb20d687ea7" d="M12.406250 -8.296875l16.109375 0.000000l0.000000 -55.625000l-17.531250 3.515625l0.000000 -8.984375l17.437500 -3.515625l9.859375 0.000000l0.000000 64.609375l16.109375 0.000000l0.000000 8.296875l-41.984375 0.000000z"/>
</defs>
<g style="fill: #000000; opacity: 1.000000" transform="translate(98.355256,402.706250)scale(0.120000)">
<use xlink:href="#c_42baa63129a918535c52adb20d687ea7"/>
<use xlink:href="#c_7a2040fe3b94fcd41d0a72c84e93b115" x="63.623047"/>
<use xlink:href="#c_7a2040fe3b94fcd41d0a72c84e93b115" x="127.246094"/>
<use xlink:href="#c_7a2040fe3b94fcd41d0a72c84e93b115" x="190.869141"/>
</g>
</g>
</g>
<g id="text7">
<defs>
<path id="c_425fd1cbcd899bef0a79975ae4756bf8" d="M19.671875 -34.812500l0.000000 26.703125l15.828125 0.000000q7.953125 0.000000 11.781250 -3.296875q3.843750 -3.296875 3.843750 -10.078125q0.000000 -6.843750 -3.843750 -10.078125q-3.828125 -3.250000 -11.781250 -3.250000zM19.671875 -64.796875l0.000000 21.968750l14.609375 0.000000q7.218750 0.000000 10.750000 -2.703125q3.546875 -2.718750 3.546875 -8.281250q0.000000 -5.515625 -3.546875 -8.250000q-3.531250 -2.734375 -10.750000 -2.734375zM9.812500 -72.906250l25.203125 0.000000q11.281250 0.000000 17.375000 4.687500q6.109375 4.687500 6.109375 13.328125q0.000000 6.703125 -3.125000 10.656250q-3.125000 3.953125 -9.187500 4.921875q7.281250 1.562500 11.312500 6.531250q4.031250 4.953125 4.031250 12.375000q0.000000 9.765625 -6.640625 15.093750q-6.640625 5.312500 -18.906250 5.312500l-26.171875 0.000000z"/>
<path id="c_6a63bda47b2f3da1cec6aadd80692cfe" d="M9.421875 -54.687500l8.984375 0.000000l0.000000 54.687500l-8.984375 0.000000zM9.421875 -75.984375l8.984375 0.000000l0.000000 11.390625l-8.984375 0.000000z"/>
<path id="c_fe791a90f5471e2ab20a5ed41a7fa451" d="M54.890625 -33.015625l0.000000 33.015625l-8.984375 0.000000l0.000000 -32.718750q0.000000 -7.765625 -3.031250 -11.609375q-3.031250 -3.859375 -9.078125 -3.859375q-7.281250 0.000000 -11.484375 4.640625q-4.203125 4.625000 -4.203125 12.640625l0.000000 30.906250l-9.031250 0.000000l0.000000 -54.687500l9.031250 0.000000l0.000000 8.500000q3.234375 -4.937500 7.593750 -7.375000q4.375000 -2.437500 10.093750 -2.437500q9.421875 0.000000 14.250000 5.828125q4.843750 5.828125 4.843750 17.156250"/>
<path id="c_d821beae607506e87470f334d9ff47af" d="M45.406250 -46.390625l0.000000 -29.593750l8.984375 0.000000l0.000000 75.984375l-8.984375 0.000000l0.000000 -8.203125q-2.828125 4.875000 -7.156250 7.250000q-4.312500 2.375000 -10.375000 2.375000q-9.906250 0.000000 -16.140625 -7.906250q-6.218750 -7.921875 -6.218750 -20.812500q0.000000 -12.890625 6.218750 -20.796875q6.234375 -7.906250 16.140625 -7.906250q6.062500 0.000000 10.375000 2.375000q4.328125 2.359375 7.156250 7.234375M14.796875 -27.296875q0.000000 9.906250 4.078125 15.546875q4.078125 5.640625 11.203125 5.640625q7.125000 0.000000 11.218750 -5.640625q4.109375 -5.640625 4.109375 -15.546875q0.000000 -9.906250 -4.109375 -15.546875q-4.093750 -5.640625 -11.218750 -5.640625q-7.125000 0.000000 -11.203125 5.640625q-4.078125 5.640625 -4.078125 15.546875"/>
<path id="c_e3864de5dabf2f8dd9eee74726882ec1" d="M45.406250 -27.984375q0.000000 -9.765625 -4.031250 -15.125000q-4.015625 -5.375000 -11.296875 -5.375000q-7.218750 0.000000 -11.250000 5.375000q-4.031250 5.359375 -4.031250 15.125000q0.000000 9.718750 4.031250 15.093750q4.031250 5.375000 11.250000 5.375000q7.281250 0.000000 11.296875 -5.375000q4.031250 -5.375000 4.031250 -15.093750M54.390625 -6.781250q0.000000 13.953125 -6.203125 20.765625q-6.187500 6.812500 -18.984375 6.812500q-4.734375 0.000000 -8.937500 -0.703125q-4.203125 -0.703125 -8.156250 -2.171875l0.000000 -8.734375q3.953125 2.140625 7.812500 3.156250q3.859375 1.031250 7.859375 1.031250q8.843750 0.000000 13.234375 -4.609375q4.390625 -4.609375 4.390625 -13.937500l0.000000 -4.453125q-2.781250 4.843750 -7.125000 7.234375q-4.343750 2.390625 -10.406250 2.390625q-10.046875 0.000000 -16.203125 -7.656250q-6.156250 -7.671875 -6.156250 -20.328125q0.000000 -12.687500 6.156250 -20.343750q6.156250 -7.671875 16.203125 -7.671875q6.062500 0.000000 10.406250 2.390625q4.343750 2.390625 7.125000 7.218750l0.000000 -8.296875l8.984375 0.000000z"/>
<path id="c_d41d8cd98f00b204e9800998ecf8427e" d=""/>
<path id="c_dbe439baa035de1a298d0549b22269d8" d="M9.812500 -72.906250l46.093750 0.000000l0.000000 8.312500l-36.234375 0.000000l0.000000 21.578125l34.718750 0.000000l0.000000 8.296875l-34.718750 0.000000l0.000000 26.421875l37.109375 0.000000l0.000000 8.296875l-46.968750 0.000000z"/>
<path id="c_0bce5afba2dc6b9024b26277c38ad8e8" d="M56.203125 -29.593750l0.000000 4.390625l-41.312500 0.000000q0.593750 9.281250 5.593750 14.140625q5.000000 4.859375 13.937500 4.859375q5.171875 0.000000 10.031250 -1.265625q4.859375 -1.265625 9.656250 -3.812500l0.000000 8.500000q-4.843750 2.046875 -9.921875 3.125000q-5.078125 1.078125 -10.296875 1.078125q-13.093750 0.000000 -20.734375 -7.609375q-7.640625 -7.625000 -7.640625 -20.625000q0.000000 -13.421875 7.250000 -21.296875q7.250000 -7.890625 19.562500 -7.890625q11.031250 0.000000 17.453125 7.109375q6.421875 7.093750 6.421875 19.296875M47.218750 -32.234375q-0.093750 -7.359375 -4.125000 -11.750000q-4.031250 -4.406250 -10.671875 -4.406250q-7.515625 0.000000 -12.031250 4.250000q-4.515625 4.250000 -5.203125 11.968750z"/>
<path id="c_6ec8d5749226675394676a5d2a3b468b" d="M41.109375 -46.296875q-1.515625 -0.875000 -3.296875 -1.281250q-1.781250 -0.421875 -3.921875 -0.421875q-7.625000 0.000000 -11.703125 4.953125q-4.078125 4.953125 -4.078125 14.234375l0.000000 28.812500l-9.031250 0.000000l0.000000 -54.687500l9.031250 0.000000l0.000000 8.500000q2.843750 -4.984375 7.375000 -7.390625q4.546875 -2.421875 11.046875 -2.421875q0.921875 0.000000 2.046875 0.125000q1.125000 0.109375 2.484375 0.359375z"/>
<path id="c_3fe22c4af425ac970aec982ae9662abe" d="M32.171875 5.078125q-3.796875 9.765625 -7.421875 12.734375q-3.609375 2.984375 -9.656250 2.984375l-7.187500 0.000000l0.000000 -7.515625l5.281250 0.000000q3.703125 0.000000 5.750000 -1.765625q2.062500 -1.750000 4.546875 -8.296875l1.609375 -4.093750l-22.109375 -53.812500l9.515625 0.000000l17.093750 42.765625l17.093750 -42.765625l9.515625 0.000000z"/>
<path id="c_9c6d5cbc59c6231647eb409cc6b37bb3" d="M25.390625 -72.906250l8.296875 0.000000l-25.390625 82.187500l-8.296875 0.000000z"/>
<path id="c_ae70b0af174184799fa4976b9c5da571" d="M28.609375 -0.000000l-27.828125 -72.906250l10.296875 0.000000l23.109375 61.375000l23.140625 -61.375000l10.250000 0.000000l-27.781250 72.906250z"/>
</defs>
<g style="fill: #000000; opacity: 1.000000" transform="translate(236.028125,417.003125)scale(0.120000)">
<use xlink:href="#c_425fd1cbcd899bef0a79975ae4756bf8"/>
<use xlink:href="#c_6a63bda47b2f3da1cec6aadd80692cfe" x="68.603516"/>
<use xlink:href="#c_fe791a90f5471e2ab20a5ed41a7fa451" x="96.386719"/>
<use xlink:href="#c_d821beae607506e87470f334d9ff47af" x="159.765625"/>
<use xlink:href="#c_6a63bda47b2f3da1cec6aadd80692cfe" x="223.242188"/>
<use xlink:href="#c_fe791a90f5471e2ab20a5ed41a7fa451" x="251.025391"/>
<use xlink:href="#c_e3864de5dabf2f8dd9eee74726882ec1" x="314.404297"/>
<use xlink:href="#c_d41d8cd98f00b204e9800998ecf8427e" x="377.880859"/>
<use xlink:href="#c_dbe439baa035de1a298d0549b22269d8" x="409.667969"/>
<use xlink:href="#c_fe791a90f5471e2ab20a5ed41a7fa451" x="472.851563"/>
<use xlink:href="#c_0bce5afba2dc6b9024b26277c38ad8e8" x="536.230469"/>
<use xlink:href="#c_6ec8d5749226675394676a5d2a3b468b" x="597.753906"/>
<use xlink:href="#c_e3864de5dabf2f8dd9eee74726882ec1" x="637.117188"/>
<use xlink:href="#c_3fe22c4af425ac970aec982ae9662abe" x="700.593750"/>
<use xlink:href="#c_d41d8cd98f00b204e9800998ecf8427e" x="759.773438"/>
<use xlink:href="#c_9c6d5cbc59c6231647eb409cc6b37bb3" x="791.560547"/>
<use xlink:href="#c_d41d8cd98f00b204e9800998ecf8427e" x="825.251953"/>
<use xlink:href="#c_0bce5afba2dc6b9024b26277c38ad8e8" x="857.039063"/>
<use xlink:href="#c_ae70b0af174184799fa4976b9c5da571" x="918.562500"/>
</g>
</g>
</g>
<g id="matplotlib.axis2">
<g id="ytick1">
<g id="line2d15">
<defs><path id="m29ceefa58400ae156518509f18f8c112" d="M0.000000 0.000000L6.000000 0.000000"/></defs>
<g ><use style="fill: none; stroke: #000000; stroke-width: 2.000000; stroke-linejoin: round; stroke-linecap: butt;  opacity: 1.000000" xlink:href="#m29ceefa58400ae156518509f18f8c112" x="72.000000" y="388.800000"/>
</g></g>
<g id="line2d16">
<defs><path id="mb5f680a2952446ef8148975d730bbae7" d="M0.000000 0.000000L-6.000000 0.000000"/></defs>
<g ><use style="fill: none; stroke: #000000; stroke-width: 2.000000; stroke-linejoin: round; stroke-linecap: butt;  opacity: 1.000000" xlink:href="#mb5f680a2952446ef8148975d730bbae7" x="518.400000" y="388.800000"/>
</g></g>
<g id="text8">
<g style="fill: #000000; opacity: 1.000000" transform="translate(60.953125,393.167188)scale(0.120000)">
<use xlink:href="#c_7a2040fe3b94fcd41d0a72c84e93b115"/>
</g>
</g>
</g>
<g id="ytick2">
<g id="line2d17">
<g ><use style="fill: none; stroke: #000000; stroke-width: 2.000000; stroke-linejoin: round; stroke-linecap: butt;  opacity: 1.000000" xlink:href="#m29ceefa58400ae156518509f18f8c112" x="72.000000" y="339.428571"/>
</g></g>
<g id="line2d18">
<g ><use style="fill: none; stroke: #000000; stroke-width: 2.000000; stroke-linejoin: round; stroke-linecap: butt;  opacity: 1.000000" xlink:href="#mb5f680a2952446ef8148975d730bbae7" x="518.400000" y="339.428571"/>
</g></g>
<g id="text9">
<g style="fill: #000000; opacity: 1.000000" transform="translate(30.906250,343.795759)scale(0.120000)">
<use xlink:href="#c_42baa63129a918535c52adb20d687ea7"/>
<use xlink:href="#c_7a2040fe3b94fcd41d0a72c84e93b115" x="63.623047"/>
<use xlink:href="#c_7a2040fe3b94fcd41d0a72c84e93b115" x="127.246094"/>
<use xlink:href="#c_7a2040fe3b94fcd41d0a72c84e93b115" x="190.869141"/>
<use xlink:href="#c_7a2040fe3b94fcd41d0a72c84e93b115" x="254.492188"/>
</g>
</g>
</g>
<g id="ytick3">
<g id="line2d19">
<g ><use style="fill: none; stroke: #000000; stroke-width: 2.000000; stroke-linejoin: round; stroke-linecap: butt;  opacity: 1.000000" xlink:href="#m29ceefa58400ae156518509f18f8c112" x="72.000000" y="290.057143"/>
</g></g>
<g id="line2d20">
<g ><use style="fill: none; stroke: #000000; stroke-width: 2.000000; stroke-linejoin: round; stroke-linecap: butt;  opacity: 1.000000" xlink:href="#mb5f680a2952446ef8148975d730bbae7" x="518.400000" y="290.057143"/>
</g></g>
<g id="text10">
<g style="fill: #000000; opacity: 1.000000" transform="translate(30.468750,294.424330)scale(0.120000)">
<use xlink:href="#c_ed3f3ed3ebfbd18bcb9c012009a68ad1"/>
<use xlink:href="#c_7a2040fe3b94fcd41d0a72c84e93b115" x="63.623047"/>
<use xlink:href="#c_7a2040fe3b94fcd41d0a72c84e93b115" x="127.246094"/>
<use xlink:href="#c_7a2040fe3b94fcd41d0a72c84e93b115" x="190.869141"/>
<use xlink:href="#c_7a2040fe3b94fcd41d0a72c84e93b115" x="254.492188"/>
</g>
</g>
</g>
<g id="ytick4">
<g id="line2d21">
<g ><use style="fill: none; stroke: #000000; stroke-width: 2.000000; stroke-linejoin: round; stroke-linecap: butt;  opacity: 1.000000" xlink:href="#m29ceefa58400ae156518509f18f8c112" x="72.000000" y="240.685714"/>
</g></g>
<g id="line2d22">
<g ><use style="fill: none; stroke: #000000; stroke-width: 2.000000; stroke-linejoin: round; stroke-linecap: butt;  opacity: 1.000000" xlink:href="#mb5f680a2952446ef8148975d730bbae7" x="518.400000" y="240.685714"/>
</g></g>
<g id="text11">
<defs>
<path id="c_3dcfa38a02242cb63ec6726c6e70be7a" d="M40.578125 -39.312500q7.078125 1.515625 11.046875 6.312500q3.984375 4.781250 3.984375 11.812500q0.000000 10.781250 -7.421875 16.703125q-7.421875 5.906250 -21.093750 5.906250q-4.578125 0.000000 -9.437500 -0.906250q-4.859375 -0.906250 -10.031250 -2.718750l0.000000 -9.515625q4.093750 2.390625 8.968750 3.609375q4.890625 1.218750 10.218750 1.218750q9.265625 0.000000 14.125000 -3.656250q4.859375 -3.656250 4.859375 -10.640625q0.000000 -6.453125 -4.515625 -10.078125q-4.515625 -3.640625 -12.562500 -3.640625l-8.500000 0.000000l0.000000 -8.109375l8.890625 0.000000q7.265625 0.000000 11.125000 -2.906250q3.859375 -2.906250 3.859375 -8.375000q0.000000 -5.609375 -3.984375 -8.609375q-3.968750 -3.015625 -11.390625 -3.015625q-4.062500 0.000000 -8.703125 0.890625q-4.640625 0.875000 -10.203125 2.718750l0.000000 -8.781250q5.625000 -1.562500 10.531250 -2.343750q4.906250 -0.781250 9.250000 -0.781250q11.234375 0.000000 17.765625 5.109375q6.546875 5.093750 6.546875 13.781250q0.000000 6.062500 -3.468750 10.234375q-3.468750 4.171875 -9.859375 5.781250"/>
</defs>
<g style="fill: #000000; opacity: 1.000000" transform="translate(30.515625,245.052902)scale(0.120000)">
<use xlink:href="#c_3dcfa38a02242cb63ec6726c6e70be7a"/>
<use xlink:href="#c_7a2040fe3b94fcd41d0a72c84e93b115" x="63.623047"/>
<use xlink:href="#c_7a2040fe3b94fcd41d0a72c84e93b115" x="127.246094"/>
<use xlink:href="#c_7a2040fe3b94fcd41d0a72c84e93b115" x="190.869141"/>
<use xlink:href="#c_7a2040fe3b94fcd41d0a72c84e93b115" x="254.492188"/>
</g>
</g>
</g>
<g id="ytick5">
<g id="line2d23">
<g ><use style="fill: none; stroke: #000000; stroke-width: 2.000000; stroke-linejoin: round; stroke-linecap: butt;  opacity: 1.000000" xlink:href="#m29ceefa58400ae156518509f18f8c112" x="72.000000" y="191.314286"/>
</g></g>
<g id="line2d24">
<g ><use style="fill: none; stroke: #000000; stroke-width: 2.000000; stroke-linejoin: round; stroke-linecap: butt;  opacity: 1.000000" xlink:href="#mb5f680a2952446ef8148975d730bbae7" x="518.400000" y="191.314286"/>
</g></g>
<g id="text12">
<g style="fill: #000000; opacity: 1.000000" transform="translate(30.187500,195.681473)scale(0.120000)">
<use xlink:href="#c_a0416418d96557a09b8c1332d34883ba"/>
<use xlink:href="#c_7a2040fe3b94fcd41d0a72c84e93b115" x="63.623047"/>
<use xlink:href="#c_7a2040fe3b94fcd41d0a72c84e93b115" x="127.246094"/>
<use xlink:href="#c_7a2040fe3b94fcd41d0a72c84e93b115" x="190.869141"/>
<use xlink:href="#c_7a2040fe3b94fcd41d0a72c84e93b115" x="254.492188"/>
</g>
</g>
</g>
<g id="ytick6">
<g id="line2d25">
<g ><use style="fill: none; stroke: #000000; stroke-width: 2.000000; stroke-linejoin: round; stroke-linecap: butt;  opacity: 1.000000" xlink:href="#m29ceefa58400ae156518509f18f8c112" x="72.000000" y="141.942857"/>
</g></g>
<g id="line2d26">
<g ><use style="fill: none; stroke: #000000; stroke-width: 2.000000; stroke-linejoin: round; stroke-linecap: butt;  opacity: 1.000000" xlink:href="#mb5f680a2952446ef8148975d730bbae7" x="518.400000" y="141.942857"/>
</g></g>
<g id="text13">
<defs>
<path id="c_1260a2df50f305f3db244e29828f968e" d="M10.796875 -72.906250l38.718750 0.000000l0.000000 8.312500l-29.687500 0.000000l0.000000 17.859375q2.140625 -0.734375 4.281250 -1.093750q2.156250 -0.359375 4.312500 -0.359375q12.203125 0.000000 19.328125 6.687500q7.140625 6.687500 7.140625 18.109375q0.000000 11.765625 -7.328125 18.296875q-7.328125 6.515625 -20.656250 6.515625q-4.593750 0.000000 -9.359375 -0.781250q-4.750000 -0.781250 -9.828125 -2.343750l0.000000 -9.921875q4.390625 2.390625 9.078125 3.562500q4.687500 1.171875 9.906250 1.171875q8.453125 0.000000 13.375000 -4.437500q4.937500 -4.437500 4.937500 -12.062500q0.000000 -7.609375 -4.937500 -12.046875q-4.921875 -4.453125 -13.375000 -4.453125q-3.953125 0.000000 -7.890625 0.875000q-3.921875 0.875000 -8.015625 2.734375z"/>
</defs>
<g style="fill: #000000; opacity: 1.000000" transform="translate(30.515625,146.310045)scale(0.120000)">
<use xlink:href="#c_1260a2df50f305f3db244e29828f968e"/>
<use xlink:href="#c_7a2040fe3b94fcd41d0a72c84e93b115" x="63.623047"/>
<use xlink:href="#c_7a2040fe3b94fcd41d0a72c84e93b115" x="127.246094"/>
<use xlink:href="#c_7a2040fe3b94fcd41d0a72c84e93b115" x="190.869141"/>
<use xlink:href="#c_7a2040fe3b94fcd41d0a72c84e93b115" x="254.492188"/>
</g>
</g>
</g>
<g id="ytick7">
<g id="line2d27">
<g ><use style="fill: none; stroke: #000000; stroke-width: 2.000000; stroke-linejoin: round; stroke-linecap: butt;  opacity: 1.000000" xlink:href="#m29ceefa58400ae156518509f18f8c112" x="72.000000" y="92.571429"/>
</g></g>
<g id="line2d28">
<g ><use style="fill: none; stroke: #000000; stroke-width: 2.000000; stroke-linejoin: round; stroke-linecap: butt;  opacity: 1.000000" xlink:href="#mb5f680a2952446ef8148975d730bbae7" x="518.400000" y="92.571429"/>
</g></g>
<g id="text14">
<g style="fill: #000000; opacity: 1.000000" transform="translate(30.437500,96.938616)scale(0.120000)">
<use xlink:href="#c_cc8d6d580d1b10c8632f7a42cd53db8a"/>
<use xlink:href="#c_7a2040fe3b94fcd41d0a72c84e93b115" x="63.623047"/>
<use xlink:href="#c_7a2040fe3b94fcd41d0a72c84e93b115" x="127.246094"/>
<use xlink:href="#c_7a2040fe3b94fcd41d0a72c84e93b115" x="190.869141"/>
<use xlink:href="#c_7a2040fe3b94fcd41d0a72c84e93b115" x="254.492188"/>
</g>
</g>
</g>
<g id="ytick8">
<g id="line2d29">
<g ><use style="fill: none; stroke: #000000; stroke-width: 2.000000; stroke-linejoin: round; stroke-linecap: butt;  opacity: 1.000000" xlink:href="#m29ceefa58400ae156518509f18f8c112" x="72.000000" y="43.200000"/>
</g></g>
<g id="line2d30">
<g ><use style="fill: none; stroke: #000000; stroke-width: 2.000000; stroke-linejoin: round; stroke-linecap: butt;  opacity: 1.000000" xlink:href="#mb5f680a2952446ef8148975d730bbae7" x="518.400000" y="43.200000"/>
</g></g>
<g id="text15">
<defs>
<path id="c_956f18cfdaf972f35a6c2b4aaac2532b" d="M8.203125 -72.906250l46.875000 0.000000l0.000000 4.203125l-26.468750 68.703125l-10.296875 0.000000l24.906250 -64.593750l-35.015625 0.000000z"/>
</defs>
<g style="fill: #000000; opacity: 1.000000" transform="translate(30.578125,47.567188)scale(0.120000)">
<use xlink:href="#c_956f18cfdaf972f35a6c2b4aaac2532b"/>
<use xlink:href="#c_7a2040fe3b94fcd41d0a72c84e93b115" x="63.623047"/>
<use xlink:href="#c_7a2040fe3b94fcd41d0a72c84e93b115" x="127.246094"/>
<use xlink:href="#c_7a2040fe3b94fcd41d0a72c84e93b115" x="190.869141"/>
<use xlink:href="#c_7a2040fe3b94fcd41d0a72c84e93b115" x="254.492188"/>
</g>
</g>
</g>
<g id="text16">
<defs>
<path id="c_a469f8ee191679fe73f3b765bd271597" d="M64.406250 -67.281250l0.000000 10.390625q-4.984375 -4.640625 -10.625000 -6.921875q-5.640625 -2.296875 -11.984375 -2.296875q-12.500000 0.000000 -19.140625 7.640625q-6.640625 7.640625 -6.640625 22.093750q0.000000 14.406250 6.640625 22.046875q6.640625 7.640625 19.140625 7.640625q6.343750 0.000000 11.984375 -2.296875q5.640625 -2.296875 10.625000 -6.937500l0.000000 10.312500q-5.171875 3.515625 -10.968750 5.281250q-5.781250 1.750000 -12.218750 1.750000q-16.562500 0.000000 -26.093750 -10.125000q-9.515625 -10.140625 -9.515625 -27.671875q0.000000 -17.578125 9.515625 -27.703125q9.531250 -10.140625 26.093750 -10.140625q6.531250 0.000000 12.312500 1.734375q5.796875 1.734375 10.875000 5.203125"/>
<path id="c_f05dd90d41f04bb96ef1ca503cc2044b" d="M30.609375 -48.390625q-7.218750 0.000000 -11.421875 5.640625q-4.203125 5.640625 -4.203125 15.453125q0.000000 9.812500 4.171875 15.453125q4.187500 5.640625 11.453125 5.640625q7.187500 0.000000 11.375000 -5.656250q4.203125 -5.671875 4.203125 -15.437500q0.000000 -9.718750 -4.203125 -15.406250q-4.187500 -5.687500 -11.375000 -5.687500M30.609375 -56.000000q11.718750 0.000000 18.406250 7.625000q6.703125 7.609375 6.703125 21.078125q0.000000 13.421875 -6.703125 21.078125q-6.687500 7.640625 -18.406250 7.640625q-11.765625 0.000000 -18.437500 -7.640625q-6.656250 -7.656250 -6.656250 -21.078125q0.000000 -13.468750 6.656250 -21.078125q6.671875 -7.625000 18.437500 -7.625000"/>
<path id="c_c438d87e693443c2861ebd6359e6491e" d="M8.500000 -21.578125l0.000000 -33.109375l8.984375 0.000000l0.000000 32.765625q0.000000 7.765625 3.015625 11.656250q3.031250 3.875000 9.093750 3.875000q7.265625 0.000000 11.484375 -4.640625q4.234375 -4.640625 4.234375 -12.656250l0.000000 -31.000000l8.984375 0.000000l0.000000 54.687500l-8.984375 0.000000l0.000000 -8.406250q-3.265625 4.984375 -7.593750 7.406250q-4.312500 2.421875 -10.031250 2.421875q-9.421875 0.000000 -14.312500 -5.859375q-4.875000 -5.859375 -4.875000 -17.140625"/>
<path id="c_0f8c41144cfbf448378cb6fd1cc8e549" d="M18.312500 -70.218750l0.000000 15.531250l18.500000 0.000000l0.000000 6.984375l-18.500000 0.000000l0.000000 29.687500q0.000000 6.687500 1.828125 8.593750q1.828125 1.906250 7.453125 1.906250l9.218750 0.000000l0.000000 7.515625l-9.218750 0.000000q-10.406250 0.000000 -14.359375 -3.875000q-3.953125 -3.890625 -3.953125 -14.140625l0.000000 -29.687500l-6.593750 0.000000l0.000000 -6.984375l6.593750 0.000000l0.000000 -15.531250z"/>
<path id="c_8e0810ad13fe20a2a87a2619799b154d" d="M44.281250 -53.078125l0.000000 8.500000q-3.796875 -1.953125 -7.906250 -2.921875q-4.093750 -0.984375 -8.500000 -0.984375q-6.687500 0.000000 -10.031250 2.046875q-3.343750 2.046875 -3.343750 6.156250q0.000000 3.125000 2.390625 4.906250q2.390625 1.781250 9.625000 3.390625l3.078125 0.687500q9.562500 2.046875 13.593750 5.781250q4.031250 3.734375 4.031250 10.421875q0.000000 7.625000 -6.031250 12.078125q-6.031250 4.437500 -16.578125 4.437500q-4.390625 0.000000 -9.156250 -0.859375q-4.765625 -0.859375 -10.031250 -2.562500l0.000000 -9.281250q4.984375 2.593750 9.812500 3.890625q4.828125 1.281250 9.578125 1.281250q6.343750 0.000000 9.750000 -2.171875q3.421875 -2.171875 3.421875 -6.125000q0.000000 -3.656250 -2.468750 -5.609375q-2.453125 -1.953125 -10.812500 -3.765625l-3.125000 -0.734375q-8.343750 -1.750000 -12.062500 -5.390625q-3.703125 -3.640625 -3.703125 -9.984375q0.000000 -7.718750 5.468750 -11.906250q5.468750 -4.203125 15.531250 -4.203125q4.968750 0.000000 9.359375 0.734375q4.406250 0.718750 8.109375 2.187500"/>
</defs>
<g style="fill: #000000; opacity: 1.000000" transform="translate(25.187500,244.507812)rotate(-90.0)scale(0.120000)">
<use xlink:href="#c_a469f8ee191679fe73f3b765bd271597"/>
<use xlink:href="#c_f05dd90d41f04bb96ef1ca503cc2044b" x="69.824219"/>
<use xlink:href="#c_c438d87e693443c2861ebd6359e6491e" x="131.005859"/>
<use xlink:href="#c_fe791a90f5471e2ab20a5ed41a7fa451" x="194.384766"/>
<use xlink:href="#c_0f8c41144cfbf448378cb6fd1cc8e549" x="257.763672"/>
<use xlink:href="#c_8e0810ad13fe20a2a87a2619799b154d" x="296.972656"/>
<use xlink:href="#c_d41d8cd98f00b204e9800998ecf8427e" x="349.072266"/>
<use xlink:href="#c_9c6d5cbc59c6231647eb409cc6b37bb3" x="380.859375"/>
<use xlink:href="#c_d41d8cd98f00b204e9800998ecf8427e" x="414.550781"/>
<use xlink:href="#c_8e0810ad13fe20a2a87a2619799b154d" x="446.337891"/>
</g>
</g>
</g>
<g id="patch3">
<path style="fill: none; stroke: #000000; stroke-width: 1.000000; stroke-linejoin: round; stroke-linecap: square;  opacity: 1.000000"  d="M72.000000 43.200000L518.400000 43.200000"/>
</g>
<g id="patch4">
<path style="fill: none; stroke: #000000; stroke-width: 1.000000; stroke-linejoin: round; stroke-linecap: square;  opacity: 1.000000"  d="M518.400000 388.800000L518.400000 43.200000"/>
</g>
<g id="patch5">
<path style="fill: none; stroke: #000000; stroke-width: 1.000000; stroke-linejoin: round; stroke-linecap: square;  opacity: 1.000000"  d="M72.000000 388.800000L518.400000 388.800000"/>
</g>
<g id="patch6">
<path style="fill: none; stroke: #000000; stroke-width: 1.000000; stroke-linejoin: round; stroke-linecap: square;  opacity: 1.000000"  d="M72.000000 388.800000L72.000000 43.200000"/>
</g>
<g id="patch7">
<path style="fill: #000000; stroke: #000000; stroke-width: 1.000000; stroke-linejoin: round; stroke-linecap: square;  opacity: 1.000000"  d="M123.859200 241.437858L124.858811 241.465749L123.467544 291.327324
L128.965404 291.480729L122.813153 296.853554L116.970073 291.146028
L122.467933 291.299433L123.859200 241.437858"/>
</g>
<g id="text17">
<defs>
<path id="c_680e57528fc97ec49605e10827a40086" d="M39.406250 -66.218750q-10.750000 0.000000 -17.078125 8.015625q-6.312500 8.000000 -6.312500 21.828125q0.000000 13.765625 6.312500 21.781250q6.328125 8.000000 17.078125 8.000000q10.734375 0.000000 17.015625 -8.000000q6.281250 -8.015625 6.281250 -21.781250q0.000000 -13.828125 -6.281250 -21.828125q-6.281250 -8.015625 -17.015625 -8.015625M39.406250 -74.218750q15.328125 0.000000 24.500000 10.281250q9.187500 10.281250 9.187500 27.562500q0.000000 17.234375 -9.187500 27.515625q-9.171875 10.281250 -24.500000 10.281250q-15.375000 0.000000 -24.593750 -10.250000q-9.203125 -10.265625 -9.203125 -27.546875q0.000000 -17.281250 9.203125 -27.562500q9.218750 -10.281250 24.593750 -10.281250"/>
<path id="c_7aecf22c350a602b3f972fa102c17cac" d="M9.812500 -72.906250l9.859375 0.000000l0.000000 30.812500l32.718750 -30.812500l12.703125 0.000000l-36.187500 33.984375l38.765625 38.921875l-12.984375 0.000000l-35.015625 -35.109375l0.000000 35.109375l-9.859375 0.000000z"/>
<path id="c_07e3f33241aff50afcba519606f2a979" d="M9.812500 -72.906250l9.859375 0.000000l0.000000 64.609375l35.500000 0.000000l0.000000 8.296875l-45.359375 0.000000z"/>
</defs>
<g style="fill: #000000; opacity: 1.000000" transform="translate(124.444886,238.233304)scale(0.100000)">
<use xlink:href="#c_680e57528fc97ec49605e10827a40086"/>
<use xlink:href="#c_d41d8cd98f00b204e9800998ecf8427e" x="78.710938"/>
<use xlink:href="#c_7aecf22c350a602b3f972fa102c17cac" x="110.498047"/>
<use xlink:href="#c_07e3f33241aff50afcba519606f2a979" x="176.074219"/>
<use xlink:href="#c_07e3f33241aff50afcba519606f2a979" x="231.787109"/>
</g>
</g>
<g id="patch8">
<path style="fill: #000000; stroke: #000000; stroke-width: 1.000000; stroke-linejoin: round; stroke-linecap: square;  opacity: 1.000000"  d="M169.896364 215.560853L168.896364 215.560853L168.896364 291.707434
L163.396364 291.707434L169.396364 300.168165L175.396364 291.707434
L169.896364 291.707434L169.896364 215.560853"/>
</g>
<g id="text18">
<defs>
<path id="c_fabc000b0fb83f456ee9f092ad635e20" d="M9.812500 -72.906250l13.281250 0.000000l32.328125 60.984375l0.000000 -60.984375l9.562500 0.000000l0.000000 72.906250l-13.281250 0.000000l-32.312500 -60.984375l0.000000 60.984375l-9.578125 0.000000z"/>
<path id="c_f15a64fcd463ef4629c48bab42cde24c" d="M18.109375 -8.203125l0.000000 29.000000l-9.031250 0.000000l0.000000 -75.484375l9.031250 0.000000l0.000000 8.296875q2.843750 -4.875000 7.156250 -7.234375q4.328125 -2.375000 10.328125 -2.375000q9.968750 0.000000 16.187500 7.906250q6.234375 7.906250 6.234375 20.796875q0.000000 12.890625 -6.234375 20.812500q-6.218750 7.906250 -16.187500 7.906250q-6.000000 0.000000 -10.328125 -2.375000q-4.312500 -2.375000 -7.156250 -7.250000M48.687500 -27.296875q0.000000 -9.906250 -4.078125 -15.546875q-4.078125 -5.640625 -11.203125 -5.640625q-7.140625 0.000000 -11.218750 5.640625q-4.078125 5.640625 -4.078125 15.546875q0.000000 9.906250 4.078125 15.546875q4.078125 5.640625 11.218750 5.640625q7.125000 0.000000 11.203125 -5.640625q4.078125 -5.640625 4.078125 -15.546875"/>
</defs>
<g style="fill: #000000; opacity: 1.000000" transform="translate(143.786989,208.782321)scale(0.100000)">
<use xlink:href="#c_fabc000b0fb83f456ee9f092ad635e20"/>
<use xlink:href="#c_6a63bda47b2f3da1cec6aadd80692cfe" x="74.804688"/>
<use xlink:href="#c_d41d8cd98f00b204e9800998ecf8427e" x="102.587891"/>
<use xlink:href="#c_ed3f3ed3ebfbd18bcb9c012009a68ad1" x="134.375000"/>
<use xlink:href="#c_f15a64fcd463ef4629c48bab42cde24c" x="197.998047"/>
</g>
</g>
<g id="patch9">
<path style="fill: #000000; stroke: #000000; stroke-width: 1.000000; stroke-linejoin: round; stroke-linecap: square;  opacity: 1.000000"  d="M279.806809 165.471385L280.359736 166.304615L298.438936 154.307358
L301.480033 158.890122L300.171273 152.557714L294.844912 148.891364
L297.886009 153.474128L279.806809 165.471385"/>
</g>
<g id="text19">
<g style="fill: #000000; opacity: 1.000000" transform="translate(256.826648,174.050446)scale(0.100000)">
<use xlink:href="#c_680e57528fc97ec49605e10827a40086"/>
<use xlink:href="#c_d41d8cd98f00b204e9800998ecf8427e" x="78.710938"/>
<use xlink:href="#c_42baa63129a918535c52adb20d687ea7" x="110.498047"/>
<use xlink:href="#c_8e0810ad13fe20a2a87a2619799b154d" x="174.121094"/>
</g>
</g>
<g id="patch10">
<path style="fill: #000000; stroke: #000000; stroke-width: 1.000000; stroke-linejoin: round; stroke-linecap: square;  opacity: 1.000000"  d="M318.104139 266.844147L319.060211 267.137281L309.158218 299.433138
L314.416611 301.045375L307.579961 302.875000L302.943754 297.527768
L308.202147 299.140004L318.104139 266.844147"/>
</g>
<g id="text20">
<defs>
<path id="c_518d586bee075aa0153eaebfcb5ab11f" d="M19.671875 -64.796875l0.000000 27.390625l12.406250 0.000000q6.890625 0.000000 10.640625 -3.562500q3.765625 -3.562500 3.765625 -10.156250q0.000000 -6.546875 -3.765625 -10.109375q-3.750000 -3.562500 -10.640625 -3.562500zM9.812500 -72.906250l22.265625 0.000000q12.265625 0.000000 18.531250 5.546875q6.281250 5.546875 6.281250 16.234375q0.000000 10.796875 -6.281250 16.312500q-6.265625 5.515625 -18.531250 5.515625l-12.406250 0.000000l0.000000 29.296875l-9.859375 0.000000z"/>
</defs>
<g style="fill: #000000; opacity: 1.000000" transform="translate(319.193409,262.919018)scale(0.100000)">
<use xlink:href="#c_518d586bee075aa0153eaebfcb5ab11f"/>
<use xlink:href="#c_0f8c41144cfbf448378cb6fd1cc8e549" x="60.302734"/>
<use xlink:href="#c_d41d8cd98f00b204e9800998ecf8427e" x="99.511719"/>
<use xlink:href="#c_a0416418d96557a09b8c1332d34883ba" x="131.298828"/>
<use xlink:href="#c_f15a64fcd463ef4629c48bab42cde24c" x="194.921875"/>
<use xlink:href="#c_3dcfa38a02242cb63ec6726c6e70be7a" x="258.398438"/>
<use xlink:href="#c_9c6d5cbc59c6231647eb409cc6b37bb3" x="322.021484"/>
<use xlink:href="#c_ed3f3ed3ebfbd18bcb9c012009a68ad1" x="355.712891"/>
</g>
</g>
<g id="patch11">
<path style="fill: #000000; stroke: #000000; stroke-width: 1.000000; stroke-linejoin: round; stroke-linecap: square;  opacity: 1.000000"  d="M343.145154 276.341195L344.067341 276.727939L333.935852 300.886406
L339.007882 303.013495L332.349037 303.377308L327.941634 298.372573
L333.013664 300.499662L343.145154 276.341195"/>
</g>
<g id="text21">
<defs>
<path id="c_9e4b30cbdf32072672ded72e9074c4c9" d="M-0.296875 -72.906250l61.671875 0.000000l0.000000 8.312500l-25.875000 0.000000l0.000000 64.593750l-9.906250 0.000000l0.000000 -64.593750l-25.890625 0.000000z"/>
</defs>
<g style="fill: #000000; opacity: 1.000000" transform="translate(344.231648,272.965179)scale(0.100000)">
<use xlink:href="#c_9e4b30cbdf32072672ded72e9074c4c9"/>
<use xlink:href="#c_6a63bda47b2f3da1cec6aadd80692cfe" x="57.958984"/>
<use xlink:href="#c_d41d8cd98f00b204e9800998ecf8427e" x="85.742188"/>
<use xlink:href="#c_ed3f3ed3ebfbd18bcb9c012009a68ad1" x="117.529297"/>
<use xlink:href="#c_f15a64fcd463ef4629c48bab42cde24c" x="181.152344"/>
</g>
</g>
<g id="patch12">
<path style="fill: #000000; stroke: #000000; stroke-width: 1.000000; stroke-linejoin: round; stroke-linecap: square;  opacity: 1.000000"  d="M388.226545 251.489371L387.226545 251.489371L387.226545 301.211727
L381.726545 301.211727L387.726545 306.736433L393.726545 301.211727
L388.226545 301.211727L388.226545 251.489371"/>
</g>
<g id="text22">
<g style="fill: #000000; opacity: 1.000000" transform="translate(362.789045,248.279464)scale(0.100000)">
<use xlink:href="#c_518d586bee075aa0153eaebfcb5ab11f"/>
<use xlink:href="#c_0f8c41144cfbf448378cb6fd1cc8e549" x="60.302734"/>
<use xlink:href="#c_d41d8cd98f00b204e9800998ecf8427e" x="99.511719"/>
<use xlink:href="#c_a0416418d96557a09b8c1332d34883ba" x="131.298828"/>
<use xlink:href="#c_d821beae607506e87470f334d9ff47af" x="194.921875"/>
</g>
</g>
<g id="patch13">
<path style="fill: #000000; stroke: #000000; stroke-width: 1.000000; stroke-linejoin: round; stroke-linecap: square;  opacity: 1.000000"  d="M482.777887 241.416099L481.786476 241.546883L488.360731 291.383146
L482.907971 292.102458L489.586909 296.855116L494.804902 290.533049
L489.352142 291.252362L482.777887 241.416099"/>
</g>
<g id="text23">
<defs>
<path id="c_73b12fe3945075d29fe0cc9a468fa31e" d="M37.109375 -75.984375l0.000000 7.484375l-8.593750 0.000000q-4.828125 0.000000 -6.718750 1.953125q-1.875000 1.953125 -1.875000 7.031250l0.000000 4.828125l14.796875 0.000000l0.000000 6.984375l-14.796875 0.000000l0.000000 47.703125l-9.031250 0.000000l0.000000 -47.703125l-8.593750 0.000000l0.000000 -6.984375l8.593750 0.000000l0.000000 -3.812500q0.000000 -9.125000 4.250000 -13.296875q4.250000 -4.187500 13.468750 -4.187500z"/>
</defs>
<g style="fill: #000000; opacity: 1.000000" transform="translate(458.657614,238.405179)scale(0.100000)">
<use xlink:href="#c_518d586bee075aa0153eaebfcb5ab11f"/>
<use xlink:href="#c_0f8c41144cfbf448378cb6fd1cc8e549" x="60.302734"/>
<use xlink:href="#c_d41d8cd98f00b204e9800998ecf8427e" x="99.511719"/>
<use xlink:href="#c_a0416418d96557a09b8c1332d34883ba" x="131.298828"/>
<use xlink:href="#c_73b12fe3945075d29fe0cc9a468fa31e" x="194.921875"/>
</g>
</g>
<g id="patch14">
<path style="fill: #000000; stroke: #000000; stroke-width: 1.000000; stroke-linejoin: round; stroke-linecap: square;  opacity: 1.000000"  d="M466.630885 301.327057L465.670933 301.607220L473.888751 329.764773
L468.609013 331.305671L475.281818 332.753308L480.128441 327.943711
L474.848703 329.484609L466.630885 301.327057"/>
</g>
<g id="text24">
<defs>
<path id="c_b672e4bee30772019085dff1098f516d" d="M53.515625 -70.515625l0.000000 9.625000q-5.609375 -2.687500 -10.593750 -4.000000q-4.984375 -1.328125 -9.625000 -1.328125q-8.046875 0.000000 -12.421875 3.125000q-4.375000 3.125000 -4.375000 8.890625q0.000000 4.843750 2.906250 7.312500q2.906250 2.453125 11.015625 3.968750l5.953125 1.218750q11.031250 2.109375 16.281250 7.406250q5.250000 5.296875 5.250000 14.171875q0.000000 10.609375 -7.109375 16.078125q-7.093750 5.468750 -20.812500 5.468750q-5.171875 0.000000 -11.015625 -1.171875q-5.828125 -1.171875 -12.078125 -3.468750l0.000000 -10.156250q6.000000 3.359375 11.765625 5.078125q5.765625 1.703125 11.328125 1.703125q8.437500 0.000000 13.031250 -3.312500q4.593750 -3.328125 4.593750 -9.484375q0.000000 -5.359375 -3.296875 -8.390625q-3.296875 -3.031250 -10.812500 -4.546875l-6.015625 -1.171875q-11.031250 -2.187500 -15.968750 -6.875000q-4.921875 -4.687500 -4.921875 -13.046875q0.000000 -9.671875 6.812500 -15.234375q6.812500 -5.562500 18.765625 -5.562500q5.140625 0.000000 10.453125 0.937500q5.328125 0.921875 10.890625 2.765625"/>
</defs>
<g style="fill: #000000; opacity: 1.000000" transform="translate(441.174886,297.650893)scale(0.100000)">
<use xlink:href="#c_b672e4bee30772019085dff1098f516d"/>
<use xlink:href="#c_6a63bda47b2f3da1cec6aadd80692cfe" x="63.476562"/>
<use xlink:href="#c_d41d8cd98f00b204e9800998ecf8427e" x="91.259766"/>
<use xlink:href="#c_ed3f3ed3ebfbd18bcb9c012009a68ad1" x="123.046875"/>
<use xlink:href="#c_f15a64fcd463ef4629c48bab42cde24c" x="186.669922"/>
</g>
</g>
<g id="patch15">
<path style="fill: #000000; stroke: #000000; stroke-width: 1.000000; stroke-linejoin: round; stroke-linecap: square;  opacity: 1.000000"  d="M442.435453 322.988334L441.695747 323.661264L454.186831 337.391849
L450.118449 341.092966L455.944582 338.581004L458.994919 333.017802
L454.926537 336.718919L442.435453 322.988334"/>
</g>
<g id="text25">
<g style="fill: #000000; opacity: 1.000000" transform="translate(417.903920,322.336607)scale(0.100000)">
<use xlink:href="#c_b672e4bee30772019085dff1098f516d"/>
<use xlink:href="#c_6a63bda47b2f3da1cec6aadd80692cfe" x="63.476562"/>
<use xlink:href="#c_d41d8cd98f00b204e9800998ecf8427e" x="91.259766"/>
<use xlink:href="#c_ed3f3ed3ebfbd18bcb9c012009a68ad1" x="123.046875"/>
<use xlink:href="#c_8e0810ad13fe20a2a87a2619799b154d" x="186.669922"/>
</g>
</g>
<g id="patch16">
<path style="fill: #000000; stroke: #000000; stroke-width: 1.000000; stroke-linejoin: round; stroke-linecap: square;  opacity: 1.000000"  d="M407.108327 239.355287L408.078273 239.598605L403.595733 257.467495
L408.930439 258.805744L402.612700 259.331268L397.291081 255.885927
L402.625787 257.224177L407.108327 239.355287"/>
</g>
<g id="text26">
<g style="fill: #000000; opacity: 1.000000" transform="translate(407.870000,238.233304)scale(0.100000)">
<use xlink:href="#c_a469f8ee191679fe73f3b765bd271597"/>
<use xlink:href="#c_d41d8cd98f00b204e9800998ecf8427e" x="69.824219"/>
<use xlink:href="#c_42baa63129a918535c52adb20d687ea7" x="101.611328"/>
<use xlink:href="#c_8e0810ad13fe20a2a87a2619799b154d" x="165.234375"/>
</g>
</g>
</g>
</g>
</svg>
